<svg id="eJ9tTp62raB1" xmlns="http://www.w3.org/2000/svg" viewBox="0 0 700 500" shape-rendering="geometricPrecision" text-rendering="geometricPrecision"><style>@keyframes eJ9tTp62raB12_ts__ts{0%,97.5%,to{transform:translate(391.285019px,486.010757px) scale(1,1)}20%{transform:translate(391.285019px,486.010757px) scale(1,1);animation-timing-function:cubic-bezier(.42,0,.58,1)}57.5%{transform:translate(391.285019px,486.010757px) scale(.8,.8);animation-timing-function:cubic-bezier(.42,0,.58,1)}}@keyframes eJ9tTp62raB16_ts__ts{0%,87.5%,to{transform:translate(737.977478px,712.978729px) scale(1,1)}2.5%{transform:translate(737.977478px,712.978729px) scale(1,1);animation-timing-function:cubic-bezier(.42,0,.58,1)}42.5%{transform:translate(737.977478px,712.978729px) scale(.8,.8);animation-timing-function:cubic-bezier(.42,0,.58,1)}}@keyframes eJ9tTp62raB21_ts__ts{0%,90%,to{transform:translate(361.342514px,637.312012px) scale(1,1)}7.5%{transform:translate(361.342514px,637.312012px) scale(1,1);animation-timing-function:cubic-bezier(.42,0,.58,1)}47.5%{transform:translate(361.342514px,637.312012px) scale(.8,.8);animation-timing-function:cubic-bezier(.42,0,.58,1)}}@keyframes eJ9tTp62raB23_ts__ts{0%{transform:translate(587.793533px,564.820251px) scale(1,1);animation-timing-function:cubic-bezier(.42,0,.58,1)}50%{transform:translate(587.793533px,564.820251px) scale(.85,.85);animation-timing-function:cubic-bezier(.42,0,.58,1)}87.5%,to{transform:translate(587.793533px,564.820251px) scale(1,1)}}@keyframes eJ9tTp62raB27_c_o{0%,15%,37.5%,65%,97.5%,to{opacity:1}27.5%,5%,55%,87.5%{opacity:1;animation-timing-function:cubic-bezier(.42,0,.58,1)}10%,32.5%,60%,92.5%{opacity:0;animation-timing-function:cubic-bezier(.42,0,.58,1)}}@keyframes eJ9tTp62raB41_ts__ts{0%,90%,to{transform:translate(520.552475px,729.295349px) scale(1,1)}2.5%{transform:translate(520.552475px,729.295349px) scale(1,1);animation-timing-function:cubic-bezier(.42,0,.58,1)}45%{transform:translate(520.552475px,729.295349px) scale(.8,.8);animation-timing-function:cubic-bezier(.42,0,.58,1)}}@keyframes eJ9tTp62raB42_to__to{0%{transform:translate(593.660034px,455.307663px);animation-timing-function:cubic-bezier(.42,0,.58,1)}50%{transform:translate(593.660034px,429.307663px);animation-timing-function:cubic-bezier(.42,0,.58,1)}to{transform:translate(593.660034px,455.307663px)}}@keyframes eJ9tTp62raB58_c_o{0%,17.5%,32.5%,50%,82.5%,to{opacity:0}22.5%,40%,7.5%,72.5%,90%{opacity:0;animation-timing-function:cubic-bezier(.42,0,.58,1)}12.5%,27.5%,45%,77.5%,95%{opacity:1;animation-timing-function:cubic-bezier(.42,0,.58,1)}}@keyframes eJ9tTp62raB60_c_o{0%,22.5%,45%,67.5%,95%,to{opacity:0}12.5%,55%,77.5%,85%{opacity:0;animation-timing-function:cubic-bezier(.42,0,.58,1)}17.5%,50%,72.5%,90%{opacity:1;animation-timing-function:cubic-bezier(.42,0,.58,1)}}@keyframes eJ9tTp62raB62_c_o{0%,27.5%,50%,70%,87.5%{opacity:0;animation-timing-function:cubic-bezier(.42,0,.58,1)}32.5%,5%,55%,75%,92.5%{opacity:1;animation-timing-function:cubic-bezier(.42,0,.58,1)}10%,37.5%,60%,80%,97.5%,to{opacity:0}}@keyframes eJ9tTp62raB63_c_o{0%,22.5%,57.5%,90%,to{opacity:1}12.5%,47.5%,80%{opacity:1;animation-timing-function:cubic-bezier(.42,0,.58,1)}17.5%,52.5%,85%{opacity:0;animation-timing-function:cubic-bezier(.42,0,.58,1)}}@keyframes eJ9tTp62raB67_c_o{0%,18.75%,42.5%,72.5%,90%{opacity:1;animation-timing-function:cubic-bezier(.42,0,.58,1)}23.75%,47.5%,5%,77.5%,95%{opacity:0;animation-timing-function:cubic-bezier(.42,0,.58,1)}10%,28.75%,52.5%,82.5%,to{opacity:1}}@keyframes eJ9tTp62raB72_c_o{0%,87.5%,to{opacity:.2}27.5%,37.5%,57.5%,67.5%,7.5%{opacity:.2;animation-timing-function:cubic-bezier(.42,0,.58,1)}17.5%,47.5%,77.5%{opacity:1;animation-timing-function:cubic-bezier(.42,0,.58,1)}}@keyframes eJ9tTp62raB73_c_o{0%,85%,to{opacity:.2}25%,35%,5%,55%,65%{opacity:.2;animation-timing-function:cubic-bezier(.42,0,.58,1)}15%,45%,75%{opacity:1;animation-timing-function:cubic-bezier(.42,0,.58,1)}}@keyframes eJ9tTp62raB74_c_o{0%,82.5%,to{opacity:.2}2.5%,22.5%,32.5%,52.5%,62.5%{opacity:.2;animation-timing-function:cubic-bezier(.42,0,.58,1)}12.5%,42.5%,72.5%{opacity:1;animation-timing-function:cubic-bezier(.42,0,.58,1)}}@keyframes eJ9tTp62raB79_to__to{0%,87.5%,to{transform:translate(737.975372px,675.11972px)}2.5%{transform:translate(737.975372px,675.11972px);animation-timing-function:cubic-bezier(.42,0,.58,1)}42.5%{transform:translate(737.975372px,651.11972px);animation-timing-function:cubic-bezier(.42,0,.58,1)}}@keyframes eJ9tTp62raB99_to__to{0%,90%,to{transform:translate(737.975372px,675.11972px)}2.5%{transform:translate(737.975372px,675.11972px);animation-timing-function:cubic-bezier(.42,0,.58,1)}45%{transform:translate(737.975372px,651.11972px);animation-timing-function:cubic-bezier(.42,0,.58,1)}}@keyframes eJ9tTp62raB119_to__to{0%,87.5%,to{transform:translate(737.975372px,675.11972px)}7.5%{transform:translate(737.975372px,675.11972px);animation-timing-function:cubic-bezier(.42,0,.58,1)}47.5%{transform:translate(737.975372px,651.11972px);animation-timing-function:cubic-bezier(.42,0,.58,1)}}@keyframes eJ9tTp62raB139_to__to{0%,97.5%,to{transform:translate(737.975372px,675.11972px)}12.5%{transform:translate(737.975372px,675.11972px);animation-timing-function:cubic-bezier(.42,0,.58,1)}57.5%{transform:translate(737.975372px,651.11972px);animation-timing-function:cubic-bezier(.42,0,.58,1)}}@keyframes eJ9tTp62raB162_to__to{0%{offset-distance:0}17.5%{offset-distance:67.912743%}22.5%{offset-distance:77.657088%}32.5%,to{offset-distance:100%}}@keyframes eJ9tTp62raB162_c_o{0%{opacity:0;animation-timing-function:cubic-bezier(.42,0,.58,1)}2.5%,30%{opacity:1;animation-timing-function:cubic-bezier(.42,0,.58,1)}32.5%,to{opacity:0}}@keyframes eJ9tTp62raB165_to__to{0%,27.5%{offset-distance:0}45%{offset-distance:67.912743%}50%{offset-distance:77.657088%}60%,to{offset-distance:100%}}@keyframes eJ9tTp62raB165_c_o{0%,60%,to{opacity:0}27.5%{opacity:0;animation-timing-function:cubic-bezier(.42,0,.58,1)}30%,57.5%{opacity:1;animation-timing-function:cubic-bezier(.42,0,.58,1)}}@keyframes eJ9tTp62raB168_to__to{0%,57.5%{offset-distance:0}75%{offset-distance:67.912743%}80%{offset-distance:77.657088%}90%,to{offset-distance:100%}}@keyframes eJ9tTp62raB168_c_o{0%,90%,to{opacity:0}57.5%{opacity:0;animation-timing-function:cubic-bezier(.42,0,.58,1)}60%,87.5%{opacity:1;animation-timing-function:cubic-bezier(.42,0,.58,1)}}@keyframes eJ9tTp62raB175_to__to{0%{offset-distance:0}7.5%{offset-distance:8.550995%}37.5%,to{offset-distance:100%}}@keyframes eJ9tTp62raB175_c_o{0%{opacity:0;animation-timing-function:cubic-bezier(.42,0,.58,1)}2.5%,35%{opacity:1;animation-timing-function:cubic-bezier(.42,0,.58,1)}37.5%,to{opacity:0}}@keyframes eJ9tTp62raB178_to__to{0%,27.5%{offset-distance:0}35%{offset-distance:8.550995%}65%,to{offset-distance:100%}}@keyframes eJ9tTp62raB178_c_o{0%,65%,to{opacity:0}27.5%{opacity:0;animation-timing-function:cubic-bezier(.42,0,.58,1)}30%,62.5%{opacity:1;animation-timing-function:cubic-bezier(.42,0,.58,1)}}@keyframes eJ9tTp62raB181_to__to{0%,60%{offset-distance:0}67.5%{offset-distance:8.550995%}97.5%,to{offset-distance:100%}}@keyframes eJ9tTp62raB181_c_o{0%,97.5%,to{opacity:0}60%{opacity:0;animation-timing-function:cubic-bezier(.42,0,.58,1)}62.5%,95%{opacity:1;animation-timing-function:cubic-bezier(.42,0,.58,1)}}@keyframes eJ9tTp62raB188_to__to{0%{offset-distance:0}7.5%{offset-distance:9.107269%}25%{offset-distance:60.286677%}30%{offset-distance:66.346631%}37.5%{offset-distance:80.02436%}42.5%{offset-distance:85.316969%}50%,to{offset-distance:100%}}@keyframes eJ9tTp62raB188_c_o{0%{opacity:0;animation-timing-function:cubic-bezier(.42,0,.58,1)}2.5%,47.5%{opacity:1;animation-timing-function:cubic-bezier(.42,0,.58,1)}50%,to{opacity:0}}@keyframes eJ9tTp62raB191_to__to{0%,30%{offset-distance:0}37.5%{offset-distance:9.107269%}55%{offset-distance:60.286677%}60%{offset-distance:66.346631%}67.5%{offset-distance:80.02436%}72.5%{offset-distance:85.316969%}80%,to{offset-distance:100%}}@keyframes eJ9tTp62raB191_c_o{0%,80%,to{opacity:0}30%{opacity:0;animation-timing-function:cubic-bezier(.42,0,.58,1)}32.5%,77.5%{opacity:1;animation-timing-function:cubic-bezier(.42,0,.58,1)}}@keyframes eJ9tTp62raB194_to__to{0%,50%{offset-distance:0}57.5%{offset-distance:9.107269%}75%{offset-distance:60.286677%}80%{offset-distance:66.346631%}87.5%{offset-distance:80.02436%}92.5%{offset-distance:85.316969%}to{offset-distance:100%}}@keyframes eJ9tTp62raB194_c_o{0%,to{opacity:0}50%{opacity:0;animation-timing-function:cubic-bezier(.42,0,.58,1)}52.5%,97.5%{opacity:1;animation-timing-function:cubic-bezier(.42,0,.58,1)}}@keyframes eJ9tTp62raB201_to__to{0%{offset-distance:0}22.5%{offset-distance:85.788603%}27.5%{offset-distance:93.918441%}32.5%,to{offset-distance:100%}}@keyframes eJ9tTp62raB201_c_o{0%{opacity:0;animation-timing-function:cubic-bezier(.42,0,.58,1)}2.5%,30%{opacity:1;animation-timing-function:cubic-bezier(.42,0,.58,1)}32.5%,to{opacity:0}}@keyframes eJ9tTp62raB204_to__to{0%,27.5%{offset-distance:0}50%{offset-distance:85.788603%}55%{offset-distance:93.918441%}60%,to{offset-distance:100%}}@keyframes eJ9tTp62raB204_c_o{0%,60%,to{opacity:0}27.5%{opacity:0;animation-timing-function:cubic-bezier(.42,0,.58,1)}30%,57.5%{opacity:1;animation-timing-function:cubic-bezier(.42,0,.58,1)}}@keyframes eJ9tTp62raB207_to__to{0%{offset-distance:0}22.5%{offset-distance:29.083837%}27.5%{offset-distance:31.839995%}32.5%{offset-distance:33.90175%}57.5%{offset-distance:66.09825%}80%{offset-distance:95.182088%}85%{offset-distance:97.938245%}90%,to{offset-distance:100%}}@keyframes eJ9tTp62raB207_c_o{0%,57.5%{opacity:0;animation-timing-function:cubic-bezier(.42,0,.58,1)}2.5%,30%,60%,87.5%{opacity:1;animation-timing-function:cubic-bezier(.42,0,.58,1)}32.5%,90%,to{opacity:0}}</style><defs><linearGradient id="eJ9tTp62raB43-fill" x1="692.61" y1="519.59" x2="490.92" y2="519.59" spreadMethod="pad" gradientUnits="userSpaceOnUse"><stop id="eJ9tTp62raB43-fill-0" offset="0%" stop-color="#236d7c"/><stop id="eJ9tTp62raB43-fill-1" offset="100%" stop-color="#0b445b"/></linearGradient><linearGradient id="eJ9tTp62raB44-fill" x1="517.586" y1="474.293" x2="665.692" y2="582.03" spreadMethod="pad" gradientUnits="userSpaceOnUse"><stop id="eJ9tTp62raB44-fill-0" offset="0%" stop-color="#00beff"/><stop id="eJ9tTp62raB44-fill-1" offset="100%" stop-color="#002e65"/></linearGradient><linearGradient id="eJ9tTp62raB45-fill" x1="790.63" y1="533.59" x2="469.6" y2="477.69" spreadMethod="pad" gradientUnits="userSpaceOnUse"><stop id="eJ9tTp62raB45-fill-0" offset="0%" stop-color="#2be4ff"/><stop id="eJ9tTp62raB45-fill-1" offset="100%" stop-color="#0d275b"/></linearGradient><linearGradient id="eJ9tTp62raB47-fill" x1="692.61" y1="504.42" x2="491.77" y2="504.42" spreadMethod="pad" gradientUnits="userSpaceOnUse"><stop id="eJ9tTp62raB47-fill-0" offset="0%" stop-color="#27d9ff"/><stop id="eJ9tTp62raB47-fill-1" offset="100%" stop-color="#057"/></linearGradient><linearGradient id="eJ9tTp62raB50-fill" x1="692.59" y1="451.7" x2="490.37" y2="451.7" spreadMethod="pad" gradientUnits="userSpaceOnUse"><stop id="eJ9tTp62raB50-fill-0" offset="0%" stop-color="#236d7c"/><stop id="eJ9tTp62raB50-fill-1" offset="100%" stop-color="#0b445b"/></linearGradient><linearGradient id="eJ9tTp62raB51-fill" x1="769.7" y1="445.12" x2="485" y2="457.99" spreadMethod="pad" gradientUnits="userSpaceOnUse"><stop id="eJ9tTp62raB51-fill-0" offset="0%" stop-color="#5fe7ff"/><stop id="eJ9tTp62raB51-fill-1" offset="100%" stop-color="#085278"/></linearGradient><linearGradient id="eJ9tTp62raB53-fill" x1="817.924" y1="443.494" x2="509.373" y2="454.747" spreadMethod="pad" gradientUnits="userSpaceOnUse"><stop id="eJ9tTp62raB53-fill-0" offset="0%" stop-color="#5cf7ff"/><stop id="eJ9tTp62raB53-fill-1" offset="100%" stop-color="#005b8a"/></linearGradient><linearGradient id="eJ9tTp62raB54-fill" x1="692.57" y1="437.2" x2="490.87" y2="437.2" spreadMethod="pad" gradientUnits="userSpaceOnUse"><stop id="eJ9tTp62raB54-fill-0" offset="0%" stop-color="#2befff"/><stop id="eJ9tTp62raB54-fill-1" offset="100%" stop-color="#00354f"/></linearGradient><linearGradient id="eJ9tTp62raB80-fill" x1="0" y1=".5" x2="1" y2=".5" spreadMethod="pad" gradientUnits="objectBoundingBox"><stop id="eJ9tTp62raB80-fill-0" offset="0%" stop-color="#234b7c"/><stop id="eJ9tTp62raB80-fill-1" offset="100%" stop-color="#0d275b"/></linearGradient><linearGradient id="eJ9tTp62raB82-fill" x1="737.97" y1="695.85" x2="785.16" y2="695.85" spreadMethod="pad" gradientUnits="userSpaceOnUse"><stop id="eJ9tTp62raB82-fill-0" offset="0%" stop-color="#085278"/><stop id="eJ9tTp62raB82-fill-1" offset="100%" stop-color="#0b445b"/></linearGradient><linearGradient id="eJ9tTp62raB84-fill" x1="784.862" y1="682.743" x2="689.264" y2="684.115" spreadMethod="pad" gradientUnits="userSpaceOnUse"><stop id="eJ9tTp62raB84-fill-0" offset="0%" stop-color="#0d275b"/><stop id="eJ9tTp62raB84-fill-1" offset="100%" stop-color="#42cce8"/></linearGradient><linearGradient id="eJ9tTp62raB87-fill" x1="690.79" y1="685.43" x2="738.96" y2="685.43" spreadMethod="pad" gradientUnits="userSpaceOnUse"><stop id="eJ9tTp62raB87-fill-0" offset="0%" stop-color="#00e8e8"/><stop id="eJ9tTp62raB87-fill-1" offset="20%" stop-color="#03bec4"/><stop id="eJ9tTp62raB87-fill-2" offset="46%" stop-color="#068a97"/><stop id="eJ9tTp62raB87-fill-3" offset="70%" stop-color="#096476"/><stop id="eJ9tTp62raB87-fill-4" offset="88%" stop-color="#0a4c62"/><stop id="eJ9tTp62raB87-fill-5" offset="100%" stop-color="#0b445b"/></linearGradient><linearGradient id="eJ9tTp62raB92-fill" x1="669.93" y1="667.33" x2="764.3" y2="667.33" spreadMethod="pad" gradientUnits="userSpaceOnUse"><stop id="eJ9tTp62raB92-fill-0" offset="0%" stop-color="#00e8e8"/><stop id="eJ9tTp62raB92-fill-1" offset="0%" stop-color="#234b7c"/><stop id="eJ9tTp62raB92-fill-2" offset="100%" stop-color="#0d275b"/></linearGradient><linearGradient id="eJ9tTp62raB93-fill" x1="737.97" y1="667.33" x2="785.16" y2="667.33" spreadMethod="pad" gradientUnits="userSpaceOnUse"><stop id="eJ9tTp62raB93-fill-0" offset="0%" stop-color="#23577c"/><stop id="eJ9tTp62raB93-fill-1" offset="100%" stop-color="#0b445b"/></linearGradient><linearGradient id="eJ9tTp62raB94-fill" x1=".971" y1=".471" x2=".07" y2=".503" spreadMethod="pad" gradientUnits="objectBoundingBox"><stop id="eJ9tTp62raB94-fill-0" offset="1%" stop-color="#5cffff"/><stop id="eJ9tTp62raB94-fill-1" offset="48.709%" stop-color="#31a1bc"/><stop id="eJ9tTp62raB94-fill-2" offset="100%" stop-color="#085278"/></linearGradient><linearGradient id="eJ9tTp62raB95-fill" x1="690.79" y1="656.9" x2="738.96" y2="656.9" spreadMethod="pad" gradientUnits="userSpaceOnUse"><stop id="eJ9tTp62raB95-fill-0" offset="0%" stop-color="#00e8e8"/><stop id="eJ9tTp62raB95-fill-1" offset="20%" stop-color="#03bec4"/><stop id="eJ9tTp62raB95-fill-2" offset="46%" stop-color="#068a97"/><stop id="eJ9tTp62raB95-fill-3" offset="70%" stop-color="#096476"/><stop id="eJ9tTp62raB95-fill-4" offset="88%" stop-color="#0a4c62"/><stop id="eJ9tTp62raB95-fill-5" offset="100%" stop-color="#0b445b"/></linearGradient><linearGradient id="eJ9tTp62raB96-fill" x1="703.63" y1="684.36" x2="782.62" y2="632.73" spreadMethod="pad" gradientUnits="userSpaceOnUse"><stop id="eJ9tTp62raB96-fill-0" offset="0%" stop-color="#5fe4ff"/><stop id="eJ9tTp62raB96-fill-1" offset="100%" stop-color="#0b445b"/></linearGradient><linearGradient id="eJ9tTp62raB100-fill" x1="0" y1=".5" x2="1" y2=".5" spreadMethod="pad" gradientUnits="objectBoundingBox"><stop id="eJ9tTp62raB100-fill-0" offset="0%" stop-color="#234b7c"/><stop id="eJ9tTp62raB100-fill-1" offset="100%" stop-color="#0d275b"/></linearGradient><linearGradient id="eJ9tTp62raB102-fill" x1="737.97" y1="695.85" x2="785.16" y2="695.85" spreadMethod="pad" gradientUnits="userSpaceOnUse"><stop id="eJ9tTp62raB102-fill-0" offset="0%" stop-color="#085278"/><stop id="eJ9tTp62raB102-fill-1" offset="100%" stop-color="#0b445b"/></linearGradient><linearGradient id="eJ9tTp62raB104-fill" x1="784.862" y1="682.743" x2="689.264" y2="684.115" spreadMethod="pad" gradientUnits="userSpaceOnUse"><stop id="eJ9tTp62raB104-fill-0" offset="0%" stop-color="#0d275b"/><stop id="eJ9tTp62raB104-fill-1" offset="100%" stop-color="#42cce8"/></linearGradient><linearGradient id="eJ9tTp62raB107-fill" x1="690.79" y1="685.43" x2="738.96" y2="685.43" spreadMethod="pad" gradientUnits="userSpaceOnUse"><stop id="eJ9tTp62raB107-fill-0" offset="0%" stop-color="#00e8e8"/><stop id="eJ9tTp62raB107-fill-1" offset="20%" stop-color="#03bec4"/><stop id="eJ9tTp62raB107-fill-2" offset="46%" stop-color="#068a97"/><stop id="eJ9tTp62raB107-fill-3" offset="70%" stop-color="#096476"/><stop id="eJ9tTp62raB107-fill-4" offset="88%" stop-color="#0a4c62"/><stop id="eJ9tTp62raB107-fill-5" offset="100%" stop-color="#0b445b"/></linearGradient><linearGradient id="eJ9tTp62raB112-fill" x1="669.93" y1="667.33" x2="764.3" y2="667.33" spreadMethod="pad" gradientUnits="userSpaceOnUse"><stop id="eJ9tTp62raB112-fill-0" offset="0%" stop-color="#00e8e8"/><stop id="eJ9tTp62raB112-fill-1" offset="0%" stop-color="#234b7c"/><stop id="eJ9tTp62raB112-fill-2" offset="100%" stop-color="#0d275b"/></linearGradient><linearGradient id="eJ9tTp62raB113-fill" x1="737.97" y1="667.33" x2="785.16" y2="667.33" spreadMethod="pad" gradientUnits="userSpaceOnUse"><stop id="eJ9tTp62raB113-fill-0" offset="0%" stop-color="#23577c"/><stop id="eJ9tTp62raB113-fill-1" offset="100%" stop-color="#0b445b"/></linearGradient><linearGradient id="eJ9tTp62raB114-fill" x1=".971" y1=".471" x2=".07" y2=".503" spreadMethod="pad" gradientUnits="objectBoundingBox"><stop id="eJ9tTp62raB114-fill-0" offset="1%" stop-color="#5cffff"/><stop id="eJ9tTp62raB114-fill-1" offset="48.709%" stop-color="#31a1bc"/><stop id="eJ9tTp62raB114-fill-2" offset="100%" stop-color="#085278"/></linearGradient><linearGradient id="eJ9tTp62raB115-fill" x1="690.79" y1="656.9" x2="738.96" y2="656.9" spreadMethod="pad" gradientUnits="userSpaceOnUse"><stop id="eJ9tTp62raB115-fill-0" offset="0%" stop-color="#00e8e8"/><stop id="eJ9tTp62raB115-fill-1" offset="20%" stop-color="#03bec4"/><stop id="eJ9tTp62raB115-fill-2" offset="46%" stop-color="#068a97"/><stop id="eJ9tTp62raB115-fill-3" offset="70%" stop-color="#096476"/><stop id="eJ9tTp62raB115-fill-4" offset="88%" stop-color="#0a4c62"/><stop id="eJ9tTp62raB115-fill-5" offset="100%" stop-color="#0b445b"/></linearGradient><linearGradient id="eJ9tTp62raB116-fill" x1="703.63" y1="684.36" x2="782.62" y2="632.73" spreadMethod="pad" gradientUnits="userSpaceOnUse"><stop id="eJ9tTp62raB116-fill-0" offset="0%" stop-color="#5fe4ff"/><stop id="eJ9tTp62raB116-fill-1" offset="100%" stop-color="#0b445b"/></linearGradient><linearGradient id="eJ9tTp62raB120-fill" x1="0" y1=".5" x2="1" y2=".5" spreadMethod="pad" gradientUnits="objectBoundingBox"><stop id="eJ9tTp62raB120-fill-0" offset="0%" stop-color="#234b7c"/><stop id="eJ9tTp62raB120-fill-1" offset="100%" stop-color="#0d275b"/></linearGradient><linearGradient id="eJ9tTp62raB122-fill" x1="737.97" y1="695.85" x2="785.16" y2="695.85" spreadMethod="pad" gradientUnits="userSpaceOnUse"><stop id="eJ9tTp62raB122-fill-0" offset="0%" stop-color="#085278"/><stop id="eJ9tTp62raB122-fill-1" offset="100%" stop-color="#0b445b"/></linearGradient><linearGradient id="eJ9tTp62raB124-fill" x1="784.862" y1="682.743" x2="689.264" y2="684.115" spreadMethod="pad" gradientUnits="userSpaceOnUse"><stop id="eJ9tTp62raB124-fill-0" offset="0%" stop-color="#0d275b"/><stop id="eJ9tTp62raB124-fill-1" offset="100%" stop-color="#42cce8"/></linearGradient><linearGradient id="eJ9tTp62raB127-fill" x1="690.79" y1="685.43" x2="738.96" y2="685.43" spreadMethod="pad" gradientUnits="userSpaceOnUse"><stop id="eJ9tTp62raB127-fill-0" offset="0%" stop-color="#00e8e8"/><stop id="eJ9tTp62raB127-fill-1" offset="20%" stop-color="#03bec4"/><stop id="eJ9tTp62raB127-fill-2" offset="46%" stop-color="#068a97"/><stop id="eJ9tTp62raB127-fill-3" offset="70%" stop-color="#096476"/><stop id="eJ9tTp62raB127-fill-4" offset="88%" stop-color="#0a4c62"/><stop id="eJ9tTp62raB127-fill-5" offset="100%" stop-color="#0b445b"/></linearGradient><linearGradient id="eJ9tTp62raB132-fill" x1="669.93" y1="667.33" x2="764.3" y2="667.33" spreadMethod="pad" gradientUnits="userSpaceOnUse"><stop id="eJ9tTp62raB132-fill-0" offset="0%" stop-color="#00e8e8"/><stop id="eJ9tTp62raB132-fill-1" offset="0%" stop-color="#234b7c"/><stop id="eJ9tTp62raB132-fill-2" offset="100%" stop-color="#0d275b"/></linearGradient><linearGradient id="eJ9tTp62raB133-fill" x1="737.97" y1="667.33" x2="785.16" y2="667.33" spreadMethod="pad" gradientUnits="userSpaceOnUse"><stop id="eJ9tTp62raB133-fill-0" offset="0%" stop-color="#23577c"/><stop id="eJ9tTp62raB133-fill-1" offset="100%" stop-color="#0b445b"/></linearGradient><linearGradient id="eJ9tTp62raB134-fill" x1=".971" y1=".471" x2=".07" y2=".503" spreadMethod="pad" gradientUnits="objectBoundingBox"><stop id="eJ9tTp62raB134-fill-0" offset="1%" stop-color="#5cffff"/><stop id="eJ9tTp62raB134-fill-1" offset="48.709%" stop-color="#31a1bc"/><stop id="eJ9tTp62raB134-fill-2" offset="100%" stop-color="#085278"/></linearGradient><linearGradient id="eJ9tTp62raB135-fill" x1="690.79" y1="656.9" x2="738.96" y2="656.9" spreadMethod="pad" gradientUnits="userSpaceOnUse"><stop id="eJ9tTp62raB135-fill-0" offset="0%" stop-color="#00e8e8"/><stop id="eJ9tTp62raB135-fill-1" offset="20%" stop-color="#03bec4"/><stop id="eJ9tTp62raB135-fill-2" offset="46%" stop-color="#068a97"/><stop id="eJ9tTp62raB135-fill-3" offset="70%" stop-color="#096476"/><stop id="eJ9tTp62raB135-fill-4" offset="88%" stop-color="#0a4c62"/><stop id="eJ9tTp62raB135-fill-5" offset="100%" stop-color="#0b445b"/></linearGradient><linearGradient id="eJ9tTp62raB136-fill" x1="703.63" y1="684.36" x2="782.62" y2="632.73" spreadMethod="pad" gradientUnits="userSpaceOnUse"><stop id="eJ9tTp62raB136-fill-0" offset="0%" stop-color="#5fe4ff"/><stop id="eJ9tTp62raB136-fill-1" offset="100%" stop-color="#0b445b"/></linearGradient><linearGradient id="eJ9tTp62raB140-fill" x1="0" y1=".5" x2="1" y2=".5" spreadMethod="pad" gradientUnits="objectBoundingBox"><stop id="eJ9tTp62raB140-fill-0" offset="0%" stop-color="#234b7c"/><stop id="eJ9tTp62raB140-fill-1" offset="100%" stop-color="#0d275b"/></linearGradient><linearGradient id="eJ9tTp62raB142-fill" x1="737.97" y1="695.85" x2="785.16" y2="695.85" spreadMethod="pad" gradientUnits="userSpaceOnUse"><stop id="eJ9tTp62raB142-fill-0" offset="0%" stop-color="#085278"/><stop id="eJ9tTp62raB142-fill-1" offset="100%" stop-color="#0b445b"/></linearGradient><linearGradient id="eJ9tTp62raB144-fill" x1="784.862" y1="682.743" x2="689.264" y2="684.115" spreadMethod="pad" gradientUnits="userSpaceOnUse"><stop id="eJ9tTp62raB144-fill-0" offset="0%" stop-color="#0d275b"/><stop id="eJ9tTp62raB144-fill-1" offset="100%" stop-color="#42cce8"/></linearGradient><linearGradient id="eJ9tTp62raB147-fill" x1="690.79" y1="685.43" x2="738.96" y2="685.43" spreadMethod="pad" gradientUnits="userSpaceOnUse"><stop id="eJ9tTp62raB147-fill-0" offset="0%" stop-color="#00e8e8"/><stop id="eJ9tTp62raB147-fill-1" offset="20%" stop-color="#03bec4"/><stop id="eJ9tTp62raB147-fill-2" offset="46%" stop-color="#068a97"/><stop id="eJ9tTp62raB147-fill-3" offset="70%" stop-color="#096476"/><stop id="eJ9tTp62raB147-fill-4" offset="88%" stop-color="#0a4c62"/><stop id="eJ9tTp62raB147-fill-5" offset="100%" stop-color="#0b445b"/></linearGradient><linearGradient id="eJ9tTp62raB152-fill" x1="669.93" y1="667.33" x2="764.3" y2="667.33" spreadMethod="pad" gradientUnits="userSpaceOnUse"><stop id="eJ9tTp62raB152-fill-0" offset="0%" stop-color="#00e8e8"/><stop id="eJ9tTp62raB152-fill-1" offset="0%" stop-color="#234b7c"/><stop id="eJ9tTp62raB152-fill-2" offset="100%" stop-color="#0d275b"/></linearGradient><linearGradient id="eJ9tTp62raB153-fill" x1="737.97" y1="667.33" x2="785.16" y2="667.33" spreadMethod="pad" gradientUnits="userSpaceOnUse"><stop id="eJ9tTp62raB153-fill-0" offset="0%" stop-color="#23577c"/><stop id="eJ9tTp62raB153-fill-1" offset="100%" stop-color="#0b445b"/></linearGradient><linearGradient id="eJ9tTp62raB154-fill" x1=".971" y1=".471" x2=".07" y2=".503" spreadMethod="pad" gradientUnits="objectBoundingBox"><stop id="eJ9tTp62raB154-fill-0" offset="1%" stop-color="#5cffff"/><stop id="eJ9tTp62raB154-fill-1" offset="48.709%" stop-color="#31a1bc"/><stop id="eJ9tTp62raB154-fill-2" offset="100%" stop-color="#085278"/></linearGradient><linearGradient id="eJ9tTp62raB155-fill" x1="690.79" y1="656.9" x2="738.96" y2="656.9" spreadMethod="pad" gradientUnits="userSpaceOnUse"><stop id="eJ9tTp62raB155-fill-0" offset="0%" stop-color="#00e8e8"/><stop id="eJ9tTp62raB155-fill-1" offset="20%" stop-color="#03bec4"/><stop id="eJ9tTp62raB155-fill-2" offset="46%" stop-color="#068a97"/><stop id="eJ9tTp62raB155-fill-3" offset="70%" stop-color="#096476"/><stop id="eJ9tTp62raB155-fill-4" offset="88%" stop-color="#0a4c62"/><stop id="eJ9tTp62raB155-fill-5" offset="100%" stop-color="#0b445b"/></linearGradient><linearGradient id="eJ9tTp62raB156-fill" x1="703.63" y1="684.36" x2="782.62" y2="632.73" spreadMethod="pad" gradientUnits="userSpaceOnUse"><stop id="eJ9tTp62raB156-fill-0" offset="0%" stop-color="#5fe4ff"/><stop id="eJ9tTp62raB156-fill-1" offset="100%" stop-color="#0b445b"/></linearGradient><radialGradient id="eJ9tTp62raB9-fill" cx="0" cy="0" r="26.1" spreadMethod="pad" gradientUnits="userSpaceOnUse" gradientTransform="matrix(.87 .5 -.87 .5 -6.656 .005)"><stop id="eJ9tTp62raB9-fill-0" offset="10%" stop-color="#00e8e8"/><stop id="eJ9tTp62raB9-fill-1" offset="14%" stop-color="rgba(0,232,232,0.88)"/><stop id="eJ9tTp62raB9-fill-2" offset="20%" stop-color="rgba(0,232,232,0.67)"/><stop id="eJ9tTp62raB9-fill-3" offset="27%" stop-color="rgba(0,232,232,0.49)"/><stop id="eJ9tTp62raB9-fill-4" offset="34%" stop-color="rgba(0,232,232,0.34)"/><stop id="eJ9tTp62raB9-fill-5" offset="42%" stop-color="rgba(0,232,232,0.22)"/><stop id="eJ9tTp62raB9-fill-6" offset="50%" stop-color="rgba(0,232,232,0.12)"/><stop id="eJ9tTp62raB9-fill-7" offset="58%" stop-color="rgba(0,232,232,0.05)"/><stop id="eJ9tTp62raB9-fill-8" offset="68%" stop-color="rgba(0,232,232,0.01)"/><stop id="eJ9tTp62raB9-fill-9" offset="82%" stop-color="rgba(0,232,232,0)"/></radialGradient><radialGradient id="eJ9tTp62raB10-fill" cx="0" cy="0" r="3.79" spreadMethod="pad" gradientUnits="userSpaceOnUse"><stop id="eJ9tTp62raB10-fill-0" offset="0%" stop-color="#00e8e8"/><stop id="eJ9tTp62raB10-fill-1" offset="10%" stop-color="rgba(0,232,232,0.81)"/><stop id="eJ9tTp62raB10-fill-2" offset="24%" stop-color="rgba(0,232,232,0.57)"/><stop id="eJ9tTp62raB10-fill-3" offset="38%" stop-color="rgba(0,232,232,0.36)"/><stop id="eJ9tTp62raB10-fill-4" offset="51%" stop-color="rgba(0,232,232,0.21)"/><stop id="eJ9tTp62raB10-fill-5" offset="63%" stop-color="rgba(0,232,232,0.09)"/><stop id="eJ9tTp62raB10-fill-6" offset="74%" stop-color="rgba(0,232,232,0.02)"/><stop id="eJ9tTp62raB10-fill-7" offset="82%" stop-color="rgba(0,232,232,0)"/></radialGradient><radialGradient id="eJ9tTp62raB14-fill" cx="0" cy="0" r="3.79" spreadMethod="pad" gradientUnits="userSpaceOnUse"><stop id="eJ9tTp62raB14-fill-0" offset="0%" stop-color="#00e8e8"/><stop id="eJ9tTp62raB14-fill-1" offset="10%" stop-color="rgba(0,232,232,0.81)"/><stop id="eJ9tTp62raB14-fill-2" offset="24%" stop-color="rgba(0,232,232,0.57)"/><stop id="eJ9tTp62raB14-fill-3" offset="38%" stop-color="rgba(0,232,232,0.36)"/><stop id="eJ9tTp62raB14-fill-4" offset="51%" stop-color="rgba(0,232,232,0.21)"/><stop id="eJ9tTp62raB14-fill-5" offset="63%" stop-color="rgba(0,232,232,0.09)"/><stop id="eJ9tTp62raB14-fill-6" offset="74%" stop-color="rgba(0,232,232,0.02)"/><stop id="eJ9tTp62raB14-fill-7" offset="82%" stop-color="rgba(0,232,232,0)"/></radialGradient><radialGradient id="eJ9tTp62raB18-fill" cx="0" cy="0" r="26.1" spreadMethod="pad" gradientUnits="userSpaceOnUse" gradientTransform="matrix(.87 .5 -.87 .5 -6.785 0)"><stop id="eJ9tTp62raB18-fill-0" offset="10%" stop-color="#00e8e8"/><stop id="eJ9tTp62raB18-fill-1" offset="14%" stop-color="rgba(0,232,232,0.88)"/><stop id="eJ9tTp62raB18-fill-2" offset="20%" stop-color="rgba(0,232,232,0.67)"/><stop id="eJ9tTp62raB18-fill-3" offset="27%" stop-color="rgba(0,232,232,0.49)"/><stop id="eJ9tTp62raB18-fill-4" offset="34%" stop-color="rgba(0,232,232,0.34)"/><stop id="eJ9tTp62raB18-fill-5" offset="42%" stop-color="rgba(0,232,232,0.22)"/><stop id="eJ9tTp62raB18-fill-6" offset="50%" stop-color="rgba(0,232,232,0.12)"/><stop id="eJ9tTp62raB18-fill-7" offset="58%" stop-color="rgba(0,232,232,0.05)"/><stop id="eJ9tTp62raB18-fill-8" offset="68%" stop-color="rgba(0,232,232,0.01)"/><stop id="eJ9tTp62raB18-fill-9" offset="82%" stop-color="rgba(0,232,232,0)"/></radialGradient><radialGradient id="eJ9tTp62raB19-fill" cx="0" cy="0" r="3.79" spreadMethod="pad" gradientUnits="userSpaceOnUse"><stop id="eJ9tTp62raB19-fill-0" offset="0%" stop-color="#00e8e8"/><stop id="eJ9tTp62raB19-fill-1" offset="10%" stop-color="rgba(0,232,232,0.81)"/><stop id="eJ9tTp62raB19-fill-2" offset="24%" stop-color="rgba(0,232,232,0.57)"/><stop id="eJ9tTp62raB19-fill-3" offset="38%" stop-color="rgba(0,232,232,0.36)"/><stop id="eJ9tTp62raB19-fill-4" offset="51%" stop-color="rgba(0,232,232,0.21)"/><stop id="eJ9tTp62raB19-fill-5" offset="63%" stop-color="rgba(0,232,232,0.09)"/><stop id="eJ9tTp62raB19-fill-6" offset="74%" stop-color="rgba(0,232,232,0.02)"/><stop id="eJ9tTp62raB19-fill-7" offset="82%" stop-color="rgba(0,232,232,0)"/></radialGradient><radialGradient id="eJ9tTp62raB25-fill" cx="0" cy="0" r="55.9" spreadMethod="pad" gradientUnits="userSpaceOnUse" gradientTransform="matrix(-.87 .5 .87 .5 10.086 .005)"><stop id="eJ9tTp62raB25-fill-0" offset="0%" stop-color="#00e8e8"/><stop id="eJ9tTp62raB25-fill-1" offset="6%" stop-color="#03c6c9"/><stop id="eJ9tTp62raB25-fill-2" offset="14%" stop-color="#069da3"/><stop id="eJ9tTp62raB25-fill-3" offset="23%" stop-color="#097a83"/><stop id="eJ9tTp62raB25-fill-4" offset="32%" stop-color="#0b5d69"/><stop id="eJ9tTp62raB25-fill-5" offset="42%" stop-color="#0d4755"/><stop id="eJ9tTp62raB25-fill-6" offset="53%" stop-color="#0e3746"/><stop id="eJ9tTp62raB25-fill-7" offset="65%" stop-color="#0f2e3e"/><stop id="eJ9tTp62raB25-fill-8" offset="82%" stop-color="#0f2b3b"/></radialGradient><radialGradient id="eJ9tTp62raB26-fill" cx="0" cy="0" r="74.98" spreadMethod="pad" gradientUnits="userSpaceOnUse" gradientTransform="matrix(-.87 .5 .87 .5 9.653 .005)"><stop id="eJ9tTp62raB26-fill-0" offset="10%" stop-color="#00e8e8"/><stop id="eJ9tTp62raB26-fill-1" offset="14%" stop-color="rgba(0,232,232,0.88)"/><stop id="eJ9tTp62raB26-fill-2" offset="20%" stop-color="rgba(0,232,232,0.67)"/><stop id="eJ9tTp62raB26-fill-3" offset="27%" stop-color="rgba(0,232,232,0.49)"/><stop id="eJ9tTp62raB26-fill-4" offset="34%" stop-color="rgba(0,232,232,0.34)"/><stop id="eJ9tTp62raB26-fill-5" offset="42%" stop-color="rgba(0,232,232,0.22)"/><stop id="eJ9tTp62raB26-fill-6" offset="50%" stop-color="rgba(0,232,232,0.12)"/><stop id="eJ9tTp62raB26-fill-7" offset="58%" stop-color="rgba(0,232,232,0.05)"/><stop id="eJ9tTp62raB26-fill-8" offset="68%" stop-color="rgba(0,232,232,0.01)"/><stop id="eJ9tTp62raB26-fill-9" offset="82%" stop-color="rgba(0,232,232,0)"/></radialGradient><radialGradient id="eJ9tTp62raB28-fill" cx="0" cy="0" r="42.98" spreadMethod="pad" gradientUnits="userSpaceOnUse" gradientTransform="matrix(-.87 .5 .87 .5 10.4 0)"><stop id="eJ9tTp62raB28-fill-0" offset="10%" stop-color="#00e8e8"/><stop id="eJ9tTp62raB28-fill-1" offset="14%" stop-color="rgba(0,232,232,0.88)"/><stop id="eJ9tTp62raB28-fill-2" offset="20%" stop-color="rgba(0,232,232,0.67)"/><stop id="eJ9tTp62raB28-fill-3" offset="27%" stop-color="rgba(0,232,232,0.49)"/><stop id="eJ9tTp62raB28-fill-4" offset="34%" stop-color="rgba(0,232,232,0.34)"/><stop id="eJ9tTp62raB28-fill-5" offset="42%" stop-color="rgba(0,232,232,0.22)"/><stop id="eJ9tTp62raB28-fill-6" offset="50%" stop-color="rgba(0,232,232,0.12)"/><stop id="eJ9tTp62raB28-fill-7" offset="58%" stop-color="rgba(0,232,232,0.05)"/><stop id="eJ9tTp62raB28-fill-8" offset="68%" stop-color="rgba(0,232,232,0.01)"/><stop id="eJ9tTp62raB28-fill-9" offset="82%" stop-color="rgba(0,232,232,0)"/></radialGradient><radialGradient id="eJ9tTp62raB29-fill" cx="0" cy="0" r="42.98" spreadMethod="pad" gradientUnits="userSpaceOnUse" gradientTransform="matrix(-.87 .5 .87 .5 10.4 0)"><stop id="eJ9tTp62raB29-fill-0" offset="10%" stop-color="#00e8e8"/><stop id="eJ9tTp62raB29-fill-1" offset="14%" stop-color="rgba(0,232,232,0.88)"/><stop id="eJ9tTp62raB29-fill-2" offset="20%" stop-color="rgba(0,232,232,0.67)"/><stop id="eJ9tTp62raB29-fill-3" offset="27%" stop-color="rgba(0,232,232,0.49)"/><stop id="eJ9tTp62raB29-fill-4" offset="34%" stop-color="rgba(0,232,232,0.34)"/><stop id="eJ9tTp62raB29-fill-5" offset="42%" stop-color="rgba(0,232,232,0.22)"/><stop id="eJ9tTp62raB29-fill-6" offset="50%" stop-color="rgba(0,232,232,0.12)"/><stop id="eJ9tTp62raB29-fill-7" offset="58%" stop-color="rgba(0,232,232,0.05)"/><stop id="eJ9tTp62raB29-fill-8" offset="68%" stop-color="rgba(0,232,232,0.01)"/><stop id="eJ9tTp62raB29-fill-9" offset="82%" stop-color="rgba(0,232,232,0)"/></radialGradient><radialGradient id="eJ9tTp62raB31-fill" cx="0" cy="0" r="6.25" spreadMethod="pad" gradientUnits="userSpaceOnUse"><stop id="eJ9tTp62raB31-fill-0" offset="0%" stop-color="#00e8e8"/><stop id="eJ9tTp62raB31-fill-1" offset="10%" stop-color="rgba(0,232,232,0.81)"/><stop id="eJ9tTp62raB31-fill-2" offset="24%" stop-color="rgba(0,232,232,0.57)"/><stop id="eJ9tTp62raB31-fill-3" offset="38%" stop-color="rgba(0,232,232,0.36)"/><stop id="eJ9tTp62raB31-fill-4" offset="51%" stop-color="rgba(0,232,232,0.21)"/><stop id="eJ9tTp62raB31-fill-5" offset="63%" stop-color="rgba(0,232,232,0.09)"/><stop id="eJ9tTp62raB31-fill-6" offset="74%" stop-color="rgba(0,232,232,0.02)"/><stop id="eJ9tTp62raB31-fill-7" offset="82%" stop-color="rgba(0,232,232,0)"/></radialGradient><radialGradient id="eJ9tTp62raB39-fill" cx="0" cy="0" r="3.79" spreadMethod="pad" gradientUnits="userSpaceOnUse" gradientTransform="rotate(76.72 .007 -.032)"><stop id="eJ9tTp62raB39-fill-0" offset="0%" stop-color="#00e8e8"/><stop id="eJ9tTp62raB39-fill-1" offset="2%" stop-color="#01dfe0"/><stop id="eJ9tTp62raB39-fill-2" offset="10%" stop-color="#03b6bd"/><stop id="eJ9tTp62raB39-fill-3" offset="20%" stop-color="#06939f"/><stop id="eJ9tTp62raB39-fill-4" offset="30%" stop-color="#087686"/><stop id="eJ9tTp62raB39-fill-5" offset="40%" stop-color="#096073"/><stop id="eJ9tTp62raB39-fill-6" offset="51%" stop-color="#0a5065"/><stop id="eJ9tTp62raB39-fill-7" offset="64%" stop-color="#0b475d"/><stop id="eJ9tTp62raB39-fill-8" offset="82%" stop-color="#0b445b"/></radialGradient><radialGradient id="eJ9tTp62raB64-fill" cx="0" cy="0" r="5.96" spreadMethod="pad" gradientUnits="userSpaceOnUse"><stop id="eJ9tTp62raB64-fill-0" offset="0%" stop-color="#00e8e8"/><stop id="eJ9tTp62raB64-fill-1" offset="10%" stop-color="rgba(0,232,232,0.81)"/><stop id="eJ9tTp62raB64-fill-2" offset="24%" stop-color="rgba(0,232,232,0.57)"/><stop id="eJ9tTp62raB64-fill-3" offset="38%" stop-color="rgba(0,232,232,0.36)"/><stop id="eJ9tTp62raB64-fill-4" offset="51%" stop-color="rgba(0,232,232,0.21)"/><stop id="eJ9tTp62raB64-fill-5" offset="63%" stop-color="rgba(0,232,232,0.09)"/><stop id="eJ9tTp62raB64-fill-6" offset="74%" stop-color="rgba(0,232,232,0.02)"/><stop id="eJ9tTp62raB64-fill-7" offset="82%" stop-color="rgba(0,232,232,0)"/></radialGradient><radialGradient id="eJ9tTp62raB66-fill" cx="0" cy="0" r="53.26" spreadMethod="pad" gradientUnits="userSpaceOnUse" gradientTransform="matrix(-.87 .5 .87 .5 10.113 .005)"><stop id="eJ9tTp62raB66-fill-0" offset="10%" stop-color="#00e8e8"/><stop id="eJ9tTp62raB66-fill-1" offset="14%" stop-color="rgba(0,232,232,0.88)"/><stop id="eJ9tTp62raB66-fill-2" offset="20%" stop-color="rgba(0,232,232,0.67)"/><stop id="eJ9tTp62raB66-fill-3" offset="27%" stop-color="rgba(0,232,232,0.49)"/><stop id="eJ9tTp62raB66-fill-4" offset="34%" stop-color="rgba(0,232,232,0.34)"/><stop id="eJ9tTp62raB66-fill-5" offset="42%" stop-color="rgba(0,232,232,0.22)"/><stop id="eJ9tTp62raB66-fill-6" offset="50%" stop-color="rgba(0,232,232,0.12)"/><stop id="eJ9tTp62raB66-fill-7" offset="58%" stop-color="rgba(0,232,232,0.05)"/><stop id="eJ9tTp62raB66-fill-8" offset="68%" stop-color="rgba(0,232,232,0.01)"/><stop id="eJ9tTp62raB66-fill-9" offset="82%" stop-color="rgba(0,232,232,0)"/></radialGradient><radialGradient id="eJ9tTp62raB68-fill" cx="0" cy="0" r="5.96" spreadMethod="pad" gradientUnits="userSpaceOnUse"><stop id="eJ9tTp62raB68-fill-0" offset="0%" stop-color="#00e8e8"/><stop id="eJ9tTp62raB68-fill-1" offset="10%" stop-color="rgba(0,232,232,0.81)"/><stop id="eJ9tTp62raB68-fill-2" offset="24%" stop-color="rgba(0,232,232,0.57)"/><stop id="eJ9tTp62raB68-fill-3" offset="38%" stop-color="rgba(0,232,232,0.36)"/><stop id="eJ9tTp62raB68-fill-4" offset="51%" stop-color="rgba(0,232,232,0.21)"/><stop id="eJ9tTp62raB68-fill-5" offset="63%" stop-color="rgba(0,232,232,0.09)"/><stop id="eJ9tTp62raB68-fill-6" offset="74%" stop-color="rgba(0,232,232,0.02)"/><stop id="eJ9tTp62raB68-fill-7" offset="82%" stop-color="rgba(0,232,232,0)"/></radialGradient><radialGradient id="eJ9tTp62raB70-fill" cx="0" cy="0" r="40.95" spreadMethod="pad" gradientUnits="userSpaceOnUse" gradientTransform="matrix(-.87 .5 .87 .5 10.377 .005)"><stop id="eJ9tTp62raB70-fill-0" offset="10%" stop-color="#00e8e8"/><stop id="eJ9tTp62raB70-fill-1" offset="14%" stop-color="rgba(0,232,232,0.88)"/><stop id="eJ9tTp62raB70-fill-2" offset="20%" stop-color="rgba(0,232,232,0.67)"/><stop id="eJ9tTp62raB70-fill-3" offset="27%" stop-color="rgba(0,232,232,0.49)"/><stop id="eJ9tTp62raB70-fill-4" offset="31.765%" stop-color="rgba(0,232,232,0.34)"/><stop id="eJ9tTp62raB70-fill-5" offset="38.761%" stop-color="rgba(0,232,232,0.22)"/><stop id="eJ9tTp62raB70-fill-6" offset="50%" stop-color="rgba(0,232,232,0.12)"/><stop id="eJ9tTp62raB70-fill-7" offset="58%" stop-color="rgba(0,232,232,0.05)"/><stop id="eJ9tTp62raB70-fill-8" offset="61.325%" stop-color="rgba(0,232,232,0.01)"/><stop id="eJ9tTp62raB70-fill-9" offset="75.36%" stop-color="rgba(0,232,232,0)"/></radialGradient><radialGradient id="eJ9tTp62raB161-fill" cx="0" cy="0" r="6.25" spreadMethod="pad" gradientUnits="userSpaceOnUse" gradientTransform="scale(-1 1)"><stop id="eJ9tTp62raB161-fill-0" offset="0%" stop-color="#00e8e8"/><stop id="eJ9tTp62raB161-fill-1" offset="10%" stop-color="rgba(0,232,232,0.81)"/><stop id="eJ9tTp62raB161-fill-2" offset="24%" stop-color="rgba(0,232,232,0.57)"/><stop id="eJ9tTp62raB161-fill-3" offset="38%" stop-color="rgba(0,232,232,0.36)"/><stop id="eJ9tTp62raB161-fill-4" offset="51%" stop-color="rgba(0,232,232,0.21)"/><stop id="eJ9tTp62raB161-fill-5" offset="63%" stop-color="rgba(0,232,232,0.09)"/><stop id="eJ9tTp62raB161-fill-6" offset="74%" stop-color="rgba(0,232,232,0.02)"/><stop id="eJ9tTp62raB161-fill-7" offset="82%" stop-color="rgba(0,232,232,0)"/></radialGradient><radialGradient id="eJ9tTp62raB164-fill" cx="0" cy="0" r="6.25" spreadMethod="pad" gradientUnits="userSpaceOnUse" gradientTransform="scale(-1 1)"><stop id="eJ9tTp62raB164-fill-0" offset="0%" stop-color="#00e8e8"/><stop id="eJ9tTp62raB164-fill-1" offset="10%" stop-color="rgba(0,232,232,0.81)"/><stop id="eJ9tTp62raB164-fill-2" offset="24%" stop-color="rgba(0,232,232,0.57)"/><stop id="eJ9tTp62raB164-fill-3" offset="38%" stop-color="rgba(0,232,232,0.36)"/><stop id="eJ9tTp62raB164-fill-4" offset="51%" stop-color="rgba(0,232,232,0.21)"/><stop id="eJ9tTp62raB164-fill-5" offset="63%" stop-color="rgba(0,232,232,0.09)"/><stop id="eJ9tTp62raB164-fill-6" offset="74%" stop-color="rgba(0,232,232,0.02)"/><stop id="eJ9tTp62raB164-fill-7" offset="82%" stop-color="rgba(0,232,232,0)"/></radialGradient><radialGradient id="eJ9tTp62raB167-fill" cx="0" cy="0" r="6.25" spreadMethod="pad" gradientUnits="userSpaceOnUse" gradientTransform="scale(-1 1)"><stop id="eJ9tTp62raB167-fill-0" offset="0%" stop-color="#00e8e8"/><stop id="eJ9tTp62raB167-fill-1" offset="10%" stop-color="rgba(0,232,232,0.81)"/><stop id="eJ9tTp62raB167-fill-2" offset="24%" stop-color="rgba(0,232,232,0.57)"/><stop id="eJ9tTp62raB167-fill-3" offset="38%" stop-color="rgba(0,232,232,0.36)"/><stop id="eJ9tTp62raB167-fill-4" offset="51%" stop-color="rgba(0,232,232,0.21)"/><stop id="eJ9tTp62raB167-fill-5" offset="63%" stop-color="rgba(0,232,232,0.09)"/><stop id="eJ9tTp62raB167-fill-6" offset="74%" stop-color="rgba(0,232,232,0.02)"/><stop id="eJ9tTp62raB167-fill-7" offset="82%" stop-color="rgba(0,232,232,0)"/></radialGradient><radialGradient id="eJ9tTp62raB170-fill" cx="0" cy="0" r="6.25" spreadMethod="pad" gradientUnits="userSpaceOnUse" gradientTransform="scale(-1 1)"><stop id="eJ9tTp62raB170-fill-0" offset="0%" stop-color="#00e8e8"/><stop id="eJ9tTp62raB170-fill-1" offset="10%" stop-color="rgba(0,232,232,0.81)"/><stop id="eJ9tTp62raB170-fill-2" offset="24%" stop-color="rgba(0,232,232,0.57)"/><stop id="eJ9tTp62raB170-fill-3" offset="38%" stop-color="rgba(0,232,232,0.36)"/><stop id="eJ9tTp62raB170-fill-4" offset="51%" stop-color="rgba(0,232,232,0.21)"/><stop id="eJ9tTp62raB170-fill-5" offset="63%" stop-color="rgba(0,232,232,0.09)"/><stop id="eJ9tTp62raB170-fill-6" offset="74%" stop-color="rgba(0,232,232,0.02)"/><stop id="eJ9tTp62raB170-fill-7" offset="82%" stop-color="rgba(0,232,232,0)"/></radialGradient><radialGradient id="eJ9tTp62raB173-fill" cx="0" cy="0" r="6.25" spreadMethod="pad" gradientUnits="userSpaceOnUse" gradientTransform="scale(-1 1) rotate(-67.6)"><stop id="eJ9tTp62raB173-fill-0" offset="0%" stop-color="#00e8e8"/><stop id="eJ9tTp62raB173-fill-1" offset="10%" stop-color="rgba(0,232,232,0.81)"/><stop id="eJ9tTp62raB173-fill-2" offset="24%" stop-color="rgba(0,232,232,0.57)"/><stop id="eJ9tTp62raB173-fill-3" offset="38%" stop-color="rgba(0,232,232,0.36)"/><stop id="eJ9tTp62raB173-fill-4" offset="51%" stop-color="rgba(0,232,232,0.21)"/><stop id="eJ9tTp62raB173-fill-5" offset="63%" stop-color="rgba(0,232,232,0.09)"/><stop id="eJ9tTp62raB173-fill-6" offset="74%" stop-color="rgba(0,232,232,0.02)"/><stop id="eJ9tTp62raB173-fill-7" offset="82%" stop-color="rgba(0,232,232,0)"/></radialGradient><radialGradient id="eJ9tTp62raB176-fill" cx="0" cy="0" r="6.25" spreadMethod="pad" gradientUnits="userSpaceOnUse" gradientTransform="scale(-1 1) rotate(-67.6)"><stop id="eJ9tTp62raB176-fill-0" offset="0%" stop-color="#00e8e8"/><stop id="eJ9tTp62raB176-fill-1" offset="10%" stop-color="rgba(0,232,232,0.81)"/><stop id="eJ9tTp62raB176-fill-2" offset="24%" stop-color="rgba(0,232,232,0.57)"/><stop id="eJ9tTp62raB176-fill-3" offset="38%" stop-color="rgba(0,232,232,0.36)"/><stop id="eJ9tTp62raB176-fill-4" offset="51%" stop-color="rgba(0,232,232,0.21)"/><stop id="eJ9tTp62raB176-fill-5" offset="63%" stop-color="rgba(0,232,232,0.09)"/><stop id="eJ9tTp62raB176-fill-6" offset="74%" stop-color="rgba(0,232,232,0.02)"/><stop id="eJ9tTp62raB176-fill-7" offset="82%" stop-color="rgba(0,232,232,0)"/></radialGradient><radialGradient id="eJ9tTp62raB179-fill" cx="0" cy="0" r="6.25" spreadMethod="pad" gradientUnits="userSpaceOnUse" gradientTransform="scale(-1 1) rotate(-67.6)"><stop id="eJ9tTp62raB179-fill-0" offset="0%" stop-color="#00e8e8"/><stop id="eJ9tTp62raB179-fill-1" offset="10%" stop-color="rgba(0,232,232,0.81)"/><stop id="eJ9tTp62raB179-fill-2" offset="24%" stop-color="rgba(0,232,232,0.57)"/><stop id="eJ9tTp62raB179-fill-3" offset="38%" stop-color="rgba(0,232,232,0.36)"/><stop id="eJ9tTp62raB179-fill-4" offset="51%" stop-color="rgba(0,232,232,0.21)"/><stop id="eJ9tTp62raB179-fill-5" offset="63%" stop-color="rgba(0,232,232,0.09)"/><stop id="eJ9tTp62raB179-fill-6" offset="74%" stop-color="rgba(0,232,232,0.02)"/><stop id="eJ9tTp62raB179-fill-7" offset="82%" stop-color="rgba(0,232,232,0)"/></radialGradient><radialGradient id="eJ9tTp62raB182-fill" cx="0" cy="0" r="6.25" spreadMethod="pad" gradientUnits="userSpaceOnUse" gradientTransform="scale(-1 1) rotate(-67.6)"><stop id="eJ9tTp62raB182-fill-0" offset="0%" stop-color="#00e8e8"/><stop id="eJ9tTp62raB182-fill-1" offset="10%" stop-color="rgba(0,232,232,0.81)"/><stop id="eJ9tTp62raB182-fill-2" offset="24%" stop-color="rgba(0,232,232,0.57)"/><stop id="eJ9tTp62raB182-fill-3" offset="38%" stop-color="rgba(0,232,232,0.36)"/><stop id="eJ9tTp62raB182-fill-4" offset="51%" stop-color="rgba(0,232,232,0.21)"/><stop id="eJ9tTp62raB182-fill-5" offset="63%" stop-color="rgba(0,232,232,0.09)"/><stop id="eJ9tTp62raB182-fill-6" offset="74%" stop-color="rgba(0,232,232,0.02)"/><stop id="eJ9tTp62raB182-fill-7" offset="82%" stop-color="rgba(0,232,232,0)"/></radialGradient><radialGradient id="eJ9tTp62raB186-fill" cx="0" cy="0" r="6.25" spreadMethod="pad" gradientUnits="userSpaceOnUse" gradientTransform="scale(-1 1)"><stop id="eJ9tTp62raB186-fill-0" offset="0%" stop-color="#00e8e8"/><stop id="eJ9tTp62raB186-fill-1" offset="10%" stop-color="rgba(0,232,232,0.81)"/><stop id="eJ9tTp62raB186-fill-2" offset="24%" stop-color="rgba(0,232,232,0.57)"/><stop id="eJ9tTp62raB186-fill-3" offset="38%" stop-color="rgba(0,232,232,0.36)"/><stop id="eJ9tTp62raB186-fill-4" offset="51%" stop-color="rgba(0,232,232,0.21)"/><stop id="eJ9tTp62raB186-fill-5" offset="63%" stop-color="rgba(0,232,232,0.09)"/><stop id="eJ9tTp62raB186-fill-6" offset="74%" stop-color="rgba(0,232,232,0.02)"/><stop id="eJ9tTp62raB186-fill-7" offset="82%" stop-color="rgba(0,232,232,0)"/></radialGradient><radialGradient id="eJ9tTp62raB189-fill" cx="0" cy="0" r="6.25" spreadMethod="pad" gradientUnits="userSpaceOnUse" gradientTransform="scale(-1 1)"><stop id="eJ9tTp62raB189-fill-0" offset="0%" stop-color="#00e8e8"/><stop id="eJ9tTp62raB189-fill-1" offset="10%" stop-color="rgba(0,232,232,0.81)"/><stop id="eJ9tTp62raB189-fill-2" offset="24%" stop-color="rgba(0,232,232,0.57)"/><stop id="eJ9tTp62raB189-fill-3" offset="38%" stop-color="rgba(0,232,232,0.36)"/><stop id="eJ9tTp62raB189-fill-4" offset="51%" stop-color="rgba(0,232,232,0.21)"/><stop id="eJ9tTp62raB189-fill-5" offset="63%" stop-color="rgba(0,232,232,0.09)"/><stop id="eJ9tTp62raB189-fill-6" offset="74%" stop-color="rgba(0,232,232,0.02)"/><stop id="eJ9tTp62raB189-fill-7" offset="82%" stop-color="rgba(0,232,232,0)"/></radialGradient><radialGradient id="eJ9tTp62raB192-fill" cx="0" cy="0" r="6.25" spreadMethod="pad" gradientUnits="userSpaceOnUse" gradientTransform="scale(-1 1)"><stop id="eJ9tTp62raB192-fill-0" offset="0%" stop-color="#00e8e8"/><stop id="eJ9tTp62raB192-fill-1" offset="10%" stop-color="rgba(0,232,232,0.81)"/><stop id="eJ9tTp62raB192-fill-2" offset="24%" stop-color="rgba(0,232,232,0.57)"/><stop id="eJ9tTp62raB192-fill-3" offset="38%" stop-color="rgba(0,232,232,0.36)"/><stop id="eJ9tTp62raB192-fill-4" offset="51%" stop-color="rgba(0,232,232,0.21)"/><stop id="eJ9tTp62raB192-fill-5" offset="63%" stop-color="rgba(0,232,232,0.09)"/><stop id="eJ9tTp62raB192-fill-6" offset="74%" stop-color="rgba(0,232,232,0.02)"/><stop id="eJ9tTp62raB192-fill-7" offset="82%" stop-color="rgba(0,232,232,0)"/></radialGradient><radialGradient id="eJ9tTp62raB195-fill" cx="0" cy="0" r="6.25" spreadMethod="pad" gradientUnits="userSpaceOnUse" gradientTransform="scale(-1 1)"><stop id="eJ9tTp62raB195-fill-0" offset="0%" stop-color="#00e8e8"/><stop id="eJ9tTp62raB195-fill-1" offset="10%" stop-color="rgba(0,232,232,0.81)"/><stop id="eJ9tTp62raB195-fill-2" offset="24%" stop-color="rgba(0,232,232,0.57)"/><stop id="eJ9tTp62raB195-fill-3" offset="38%" stop-color="rgba(0,232,232,0.36)"/><stop id="eJ9tTp62raB195-fill-4" offset="51%" stop-color="rgba(0,232,232,0.21)"/><stop id="eJ9tTp62raB195-fill-5" offset="63%" stop-color="rgba(0,232,232,0.09)"/><stop id="eJ9tTp62raB195-fill-6" offset="74%" stop-color="rgba(0,232,232,0.02)"/><stop id="eJ9tTp62raB195-fill-7" offset="82%" stop-color="rgba(0,232,232,0)"/></radialGradient><radialGradient id="eJ9tTp62raB199-fill" cx="0" cy="0" r="6.25" spreadMethod="pad" gradientUnits="userSpaceOnUse" gradientTransform="scale(-1 1)"><stop id="eJ9tTp62raB199-fill-0" offset="0%" stop-color="#00e8e8"/><stop id="eJ9tTp62raB199-fill-1" offset="10%" stop-color="rgba(0,232,232,0.81)"/><stop id="eJ9tTp62raB199-fill-2" offset="24%" stop-color="rgba(0,232,232,0.57)"/><stop id="eJ9tTp62raB199-fill-3" offset="38%" stop-color="rgba(0,232,232,0.36)"/><stop id="eJ9tTp62raB199-fill-4" offset="51%" stop-color="rgba(0,232,232,0.21)"/><stop id="eJ9tTp62raB199-fill-5" offset="63%" stop-color="rgba(0,232,232,0.09)"/><stop id="eJ9tTp62raB199-fill-6" offset="74%" stop-color="rgba(0,232,232,0.02)"/><stop id="eJ9tTp62raB199-fill-7" offset="82%" stop-color="rgba(0,232,232,0)"/></radialGradient><radialGradient id="eJ9tTp62raB202-fill" cx="0" cy="0" r="6.25" spreadMethod="pad" gradientUnits="userSpaceOnUse" gradientTransform="scale(-1 1)"><stop id="eJ9tTp62raB202-fill-0" offset="0%" stop-color="#00e8e8"/><stop id="eJ9tTp62raB202-fill-1" offset="10%" stop-color="rgba(0,232,232,0.81)"/><stop id="eJ9tTp62raB202-fill-2" offset="24%" stop-color="rgba(0,232,232,0.57)"/><stop id="eJ9tTp62raB202-fill-3" offset="38%" stop-color="rgba(0,232,232,0.36)"/><stop id="eJ9tTp62raB202-fill-4" offset="51%" stop-color="rgba(0,232,232,0.21)"/><stop id="eJ9tTp62raB202-fill-5" offset="63%" stop-color="rgba(0,232,232,0.09)"/><stop id="eJ9tTp62raB202-fill-6" offset="74%" stop-color="rgba(0,232,232,0.02)"/><stop id="eJ9tTp62raB202-fill-7" offset="82%" stop-color="rgba(0,232,232,0)"/></radialGradient><radialGradient id="eJ9tTp62raB205-fill" cx="0" cy="0" r="6.25" spreadMethod="pad" gradientUnits="userSpaceOnUse" gradientTransform="scale(-1 1)"><stop id="eJ9tTp62raB205-fill-0" offset="0%" stop-color="#00e8e8"/><stop id="eJ9tTp62raB205-fill-1" offset="10%" stop-color="rgba(0,232,232,0.81)"/><stop id="eJ9tTp62raB205-fill-2" offset="24%" stop-color="rgba(0,232,232,0.57)"/><stop id="eJ9tTp62raB205-fill-3" offset="38%" stop-color="rgba(0,232,232,0.36)"/><stop id="eJ9tTp62raB205-fill-4" offset="51%" stop-color="rgba(0,232,232,0.21)"/><stop id="eJ9tTp62raB205-fill-5" offset="63%" stop-color="rgba(0,232,232,0.09)"/><stop id="eJ9tTp62raB205-fill-6" offset="74%" stop-color="rgba(0,232,232,0.02)"/><stop id="eJ9tTp62raB205-fill-7" offset="82%" stop-color="rgba(0,232,232,0)"/></radialGradient><radialGradient id="eJ9tTp62raB208-fill" cx="0" cy="0" r="6.25" spreadMethod="pad" gradientUnits="userSpaceOnUse" gradientTransform="scale(-1 1)"><stop id="eJ9tTp62raB208-fill-0" offset="0%" stop-color="#00e8e8"/><stop id="eJ9tTp62raB208-fill-1" offset="10%" stop-color="rgba(0,232,232,0.81)"/><stop id="eJ9tTp62raB208-fill-2" offset="24%" stop-color="rgba(0,232,232,0.57)"/><stop id="eJ9tTp62raB208-fill-3" offset="38%" stop-color="rgba(0,232,232,0.36)"/><stop id="eJ9tTp62raB208-fill-4" offset="51%" stop-color="rgba(0,232,232,0.21)"/><stop id="eJ9tTp62raB208-fill-5" offset="63%" stop-color="rgba(0,232,232,0.09)"/><stop id="eJ9tTp62raB208-fill-6" offset="74%" stop-color="rgba(0,232,232,0.02)"/><stop id="eJ9tTp62raB208-fill-7" offset="82%" stop-color="rgba(0,232,232,0)"/></radialGradient></defs><g style="isolation:isolate" transform="matrix(-1.1144 0 0 1.1144 975.122 -360.523)"><g transform="translate(.605)"><g transform="translate(159.953 214.688)"><path d="M913.7 298.7c-2-1.2-5.3-1.2-7.3 0-1.8 1-2 2.7-.5 3.8l-25.9 15h-63.4l-114.3 66H601.9l-62.6 36.1-29.2-16.8 72.8-42h78.3l88.9-51.3c2 .8 4.8.7 6.6-.3 2-1.2 2-3 0-4.2s-5.3-1.2-7.3 0c-1.8 1-2 2.7-.5 3.8l-88 50.8h-76l95.8-55.3.3-.2v-44.4l143.4-82.8c2 .8 4.8.7 6.6-.3 2-1.2 2-3 0-4.2s-5.3-1.2-7.3 0c-1.8 1-2 2.7-.5 3.8l-143.1 82.6-.1.2v44.4l-170.9 98.7-25.1-14.5 102.4-59.1.3-.2V239l91.2-52.7c2 .8 4.8.7 6.6-.3 2-1.2 2-3 0-4.2s-5.3-1.2-7.3 0c-1.8 1-2 2.7-.5 3.8l-90.9 52.5-.3.2v89.3l-102.7 59.3-15.5-8.9 76.1-43.9V229.4l36.6-21.1v-39.4l32.3-18.7c2 .8 4.8.7 6.6-.3 2-1.2 2-3 0-4.2s-5.3-1.2-7.3 0c-1.8 1-2 2.7-.5 3.8l-32.3 18.7v39.4l-36.6 21.1v104.7l-76.1 43.9-20.9-12.1 58.2-33.6V156.8h-1.2v102.4L473 242.3v-57.4c1.1-.1 2.2-.3 3.1-.8 2-1.2 2-3 0-4.2s-5.3-1.2-7.3 0-2 3 0 4.2c.9.5 1.9.8 3.1.8V243l30.4 17.5v30.9L464 269.2c1.3-1.2 1.1-2.7-.6-3.8-2-1.2-5.3-1.2-7.3 0s-2 3 0 4.2c1.9 1.1 4.8 1.1 6.8.2l39.5 22.8v38.2l-58.2 33.6-18.6-10.7 28.3-16.3v-24.1l-7.1-4.1V297l-51-29.5v-20.8l-41.5-24c1.5-1.2 1.3-2.8-.5-3.8-2-1.2-5.3-1.2-7.3 0s-2 3 0 4.2c1.8 1 4.6 1.1 6.6.3l41.5 24v20.8l51 29.5v10.9l-85.7-49.5c1.3-1.2 1.1-2.7-.6-3.8-2-1.2-5.3-1.2-7.3 0s-2 3 0 4.2c1.9 1.1 4.8 1.1 6.8.2l68.7 39.7H393l-39.6-22.8c1.5-1.2 1.3-2.8-.5-3.8-2-1.2-5.3-1.2-7.3 0s-2 3 0 4.2c1.8 1 4.6 1.1 6.6.3l40.4 23.3h36.7v-.1l23.4 13.5v22.7L424.4 353l-5.3-3.1-.3-.2-7.3 4.2-118.8-68.6-.1-.1h-32.4c-.2-.6-.7-1.1-1.4-1.5-2-1.2-5.3-1.2-7.3 0s-2 3 0 4.2 5.3 1.2 7.3 0c.7-.4 1.2-1 1.4-1.5h32.1l118.1 68.2-18.1 10.4-98.8-57c1.5-1.2 1.3-2.8-.5-3.8-2-1.2-5.3-1.2-7.3 0s-2 3 0 4.2c1.8 1 4.6 1.1 6.6.3l98.8 57-18.7 10.8-139.5-80.6v-67.5l65.8-38h60.6l48-27.7c2 .8 4.8.7 6.6-.3 2-1.2 2-3 0-4.2s-5.3-1.2-7.3 0c-1.8 1-2 2.7-.5 3.8L359 189.6h-58.3l80-46.2.3-.2V83.1c1.1-.1 2.2-.3 3.1-.8 2-1.2 2-3 0-4.2s-5.3-1.2-7.3 0-2 3 0 4.2c.9.5 1.9.8 3.1.8v59.4l-133 76.8-81.9-47.2V119l-58.1-33.6c1.5-1.2 1.3-2.8-.5-3.8-2-1.2-5.3-1.2-7.3 0s-2 3 0 4.2c1.8 1 4.6 1.1 6.6.3l58.1 33.6v53.1l81.8 47.2-13.6 7.9-.3.2v53l-23.6-13.6v-33.1l-48-27.7c1.5-1.2 1.3-2.8-.5-3.8-2-1.2-5.3-1.2-7.3 0s-2 3 0 4.2c1.8 1 4.6 1.1 6.6.3l48 27.7v33.1l24.7 14.3v14.4l139.5 80.6-20.6 11.9L80.2 233.1v-56.7l-29-16.7c.8-.6 1.3-1.3 1.3-2.2 0-1.8-2.3-3.3-5.1-3.3s-5.1 1.5-5.1 3.3 2.3 3.3 5.1 3.3c1 0 1.9-.2 2.7-.5l29 16.8v56.7L349.6 390l-16.6 9.6L193.5 319l-.1-.1H92l-40.4-23.3c.6-.5 1-1.2 1-1.9 0-1.8-2.3-3.3-5.1-3.3s-5.1 1.5-5.1 3.3 2.3 3.3 5.1 3.3c1.2 0 2.2-.3 3.1-.7L91.5 320l.1.1H193l138.7 80.1-14.6 8.5-131.9-76.2-.1-.1H68.7l-17.9-10.3c.2-.4.4-.8.4-1.2 0-1.8-2.3-3.3-5.1-3.3s-5.1 1.5-5.1 3.3 2.3 3.3 5.1 3.3c1.6 0 3-.5 3.9-1.2l18.3 10.6.1.1h116.4l19.5 11.3H50.6c-.4-1.6-2.5-2.8-5-2.8-2.8 0-5.1 1.5-5.1 3.3s2.3 3.3 5.1 3.3c2.5 0 4.5-1.1 5-2.7h155.7l49.2 28.4-19.3 11.2h-34.3l-32.1 18.5c-2-.8-4.8-.7-6.6.3-2 1.2-2 3 0 4.2s5.3 1.2 7.3 0c1.8-1 2-2.7.5-3.8l31.3-18.1h32L159.5 430H90.3l-37.9-22c.7-.6 1.1-1.3 1.1-2.1 0-1.8-2.3-3.3-5.1-3.3s-5.1 1.5-5.1 3.3 2.3 3.3 5.1 3.3c1.1 0 2.1-.2 2.9-.6l38.6 22.3.1.1h69.7l96.9-56 41.2 23.8h-22.7l-18.3 10.6c-2-.9-4.9-.8-6.7.3-2 1.2-2 3 0 4.2s5.3 1.2 7.3 0c1.8-1 2-2.6.6-3.8l17.5-10.1h24.4l16.2 9.3-33.6 19.4-.9.5 10.8 6.2-59.5 34.4H213l-23.7-13.7c1.5-1.2 1.3-2.8-.5-3.8-2-1.2-5.3-1.2-7.3 0s-2 3 0 4.2c1.8 1 4.6 1.1 6.6.3l24.4 14.1.1.1h20.5l43.2-25v22.9l-40.5 23.4c-2-.8-4.8-.7-6.6.3-2 1.2-2 3 0 4.2s5.3 1.2 7.3 0c1.8-1 2-2.7.5-3.8l40.5-23.4v-24.2l16-9.2 56.1 32.4-26 15h-33.8l-53.4 30.8h-40.5l-56.3-32.5c1.5-1.2 1.3-2.8-.5-3.8-2-1.2-5.3-1.2-7.3 0s-2 3 0 4.2c1.8 1 4.6 1.1 6.6.3l57 32.9.1.1h41.1l53.4-30.8h31.5L165.1 575H54.6l-4.9 2.8v.2c-.7-.2-1.5-.4-2.4-.4-2.8 0-5.1 1.5-5.1 3.3s2.3 3.3 5.1 3.3 5.1-1.5 5.1-3.3c0-1-.6-1.8-1.6-2.4l4.1-2.4h110.5l185.3-107 21 12.1-187.1 108-.3.2v64.5l-64 37c-2-.8-4.8-.7-6.6.3-2 1.2-2 3 0 4.2s5.3 1.2 7.3 0c1.8-1 2-2.7.5-3.8l64-37v-64.5L372.9 482l22.1 12.8-109.7 63.4-.3.2v55.4l188 108.5h8.4-.1c-1.8-1-4.6-1.1-6.6-.3l-138.6-80h41.7l74.7 43.2c-1.5 1.2-1.3 2.8.5 3.8 2 1.2 5.3 1.2 7.3 0s2-3 0-4.2c-1.8-1-4.6-1.1-6.6-.3l-75.4-43.6-.1-.1h-44L286.1 613v-54.1l88.3-51v27.5l-54.6 31.5v27.8c-1.1.1-2.2.3-3.1.8-2 1.2-2 3 0 4.2s5.3 1.2 7.3 0 2-3 0-4.2c-.9-.5-1.9-.8-3.1-.8v-27.2l54.6-31.5v-28.8l20.5-11.9 22.4 12.9.3.2 13.8-7.9v60l-47.9 27.6c-2-.8-4.8-.7-6.6.3-2 1.2-2 3 0 4.2s5.3 1.2 7.3 0c1.8-1 2-2.7.5-3.8l47.9-27.6v-24.5l35.8 20.7v23.2l-78.1 45.1c-2-.8-4.8-.7-6.6.3-2 1.2-2 3 0 4.2s5.3 1.2 7.3 0c1.8-1 2-2.7.5-3.8l77.8-44.9.3-.2v-24.6l-36.9-21.3v-35.5l19.6-11.3 16.6 9.6v21.7l25.1 14.5c-1.5 1.2-1.3 2.8.5 3.8 2 1.2 5.3 1.2 7.3 0s2-3 0-4.2c-1.8-1-4.6-1.1-6.6-.3L471 519.2v-20.4l54.8 31.6V578l-82.4 47.6-.3.2v17.9l46.6 26.9c-1.5 1.2-1.3 2.8.5 3.8 2 1.2 5.3 1.2 7.3 0s2-3 0-4.2c-1.8-1-4.6-1.1-6.6-.3L444.3 643v-16.6l82.4-47.6.3-.2v-49l-72.5-41.9 14.6-8.5 94 54.3v89.3l27.4 15.8v82.1l2.1 1.2h2.3l-3.3-1.9v-80.8l143.2 82.6 1.095-.65L564.2 622v-89.3l-94-54.3 16.6-9.6 91.5 52.8-.3.5 87.1 50.3v11l17.7 10.2V625l130 75.1c-1.5 1.2-1.3 2.8.5 3.8 2 1.2 5.3 1.2 7.3 0s2-3 0-4.2c-1.8-1-4.6-1.1-6.6-.3l-130-75.1v-30.1l22.5 13c-1.5 1.2-1.3 2.8.5 3.8 2 1.2 5.3 1.2 7.3 0s2-3 0-4.2c-1.8-1-4.6-1.1-6.6-.3l-41.3-23.9v-11L580 522.3h40.1L792.8 622v26.1l68.4 39.5c-1.5 1.2-1.3 2.8.5 3.8 2 1.2 5.3 1.2 7.3 0s2-3 0-4.2c-1.8-1-4.6-1.1-6.6-.3L794 647.4v-26.1l-171.6-99h116.8l139.4 80.5c-.1.3-.2.5-.2.8 0 1.8 2.3 3.2 5.1 3.2s5.1-1.5 5.1-3.2-2.3-3.2-5.1-3.2c-1.8 0-3.4.6-4.3 1.5l-139.7-80.6-.1-.1H579.1L488 468.6l17.2-9.9 66 38.1.1.1h185.8L887.6 572c-1.5 1.2-1.3 2.8.5 3.8 2 1.2 5.3 1.2 7.3 0s2-3 0-4.2c-1.8-1-4.6-1.1-6.6-.3l-131-75.6-.1-.1H620.1l36-20.8h97.2c.2.6.7 1.1 1.4 1.5 2 1.2 5.3 1.2 7.3 0s2-3 0-4.2-5.3-1.2-7.3 0c-.7.4-1.2 1-1.4 1.5h-97.6l-38 21.9h-46.1l-65.3-37.7 15.2-8.8 57.8 33.4.1.1h23.3l47.2-27.3h142.5l89.2-51.5c2 .8 4.8.7 6.6-.3 2-1.2 2-3 0-4.2s-5.3-1.2-7.3 0c-1.8 1.1-2 2.7-.4 3.9l-88.4 51H649.8l-47.2 27.3h-22.7l-42-24.2h21l20.3 11.7.1.1h15.9l35.4-20.4c2 .8 4.8.7 6.5-.4 2-1.2 2-3 0-4.2s-5.3-1.2-7.3 0c-1.8 1.1-2 2.7-.4 3.9l-34.5 19.9h-15.3l-20.3-11.7-.1-.1h-23.3l-13.1-7.6 21.4-12.3h31.5l39-22.5c2 .8 4.8.7 6.6-.3 2-1.2 2-3 0-4.2s-5.3-1.2-7.3 0c-1.8 1-2 2.7-.5 3.8l-38.1 22h-29.2l9.2-5.3.9-.5-15.6-9 42.2-24.4h44.4l46.8 27c-1.5 1.2-1.3 2.8.5 3.8 2 1.2 5.3 1.2 7.3 0s2-3 0-4.2c-1.8-1-4.6-1.1-6.6-.3L651 408.3h87.6l25.2-14.5H814c.2.6.7 1.1 1.4 1.5 2 1.2 5.3 1.2 7.3 0s2-3 0-4.2-5.3-1.2-7.3 0c-.7.4-1.2 1-1.4 1.5h-50.5l-25.2 14.5H649l-21.4-12.4-.1-.1h-42.7l17.5-10.1h100.5l25.9-15h76.9l36.8-21.2c2 .8 4.8.7 6.6-.3 2-1.2 2-3 0-4.2s-5.3-1.2-7.3 0c-1.8 1-2 2.7-.5 3.8l-35.9 20.7h-74.6l86.3-49.8h63.4l26.7-15.4c2 .8 4.8.7 6.6-.3 2-1 2-2.9 0-4.1ZM553.8 429.2l-135 78-135-78 135-78 135 78Z" transform="matrix(-.62636 0 0 .62636 701.159 77.152)" opacity=".1" fill="#42cce8"/><path d="M62.63 454.76a6.11 6.11 0 0 0-5 .22c-1.51.88-1.51 2.29 0 3.17a6.1 6.1 0 0 0 5.49 0c1.37-.79 1.49-2 .39-2.89" transform="translate(177.518 73.996)" opacity=".1" fill="#00e8e8"/></g></g><g transform="translate(1.072)"><path d="M390.85 518.88a8.7 8.7 0 0 1-4.3-1l-50.28-29a3 3 0 0 1-1.75-2.54c0-1.19.89-2.38 2.45-3.28l48.87-28.22c2.92-1.68 7.37-1.87 9.9-.4l50.28 29a3 3 0 0 1 1.74 2.54c0 1.19-.89 2.38-2.44 3.28l-48.87 28.22a11.54 11.54 0 0 1-5.6 1.4Zm.59-65.27a11.32 11.32 0 0 0-5.51 1.38l-48.87 28.21c-1.49.87-2.35 2-2.35 3.12a2.85 2.85 0 0 0 1.65 2.38l50.28 29c2.48 1.43 6.84 1.25 9.71-.41l48.87-28.21c1.5-.87 2.36-2 2.36-3.12a2.85 2.85 0 0 0-1.65-2.38l-50.28-29a8.61 8.61 0 0 0-4.21-.97Z" fill="#6ed6fc" stroke="#6ed6fc" stroke-width=".75" stroke-miterlimit="10"/><ellipse style="mix-blend-mode:lighten" rx="31.96" ry="18.45" transform="translate(428.34 502.57)" opacity=".42" fill="url(#eJ9tTp62raB9-fill)"/><circle style="mix-blend-mode:lighten" r="3.79" transform="matrix(1.18051 0 0 1.17193 422.6 502.408)" fill="url(#eJ9tTp62raB10-fill)"/><path d="M424.33 502.65a1.09 1.09 0 1 1-1.08-1.08c.596 0 1.08.484 1.08 1.08Z" transform="translate(-.64 -.12)" fill="#00fcf8"/><g transform="translate(391.285 486.01)" style="animation:eJ9tTp62raB12_ts__ts 4000ms linear infinite normal forwards"><path d="m386.35 509.54-35.83-20.69c-2.72-1.57-2.38-4.31.76-6.13l34.31-19.81c3.14-1.81 7.9-2 10.62-.44l35.84 20.69c2.72 1.57 2.38 4.32-.76 6.13L397 509.1c-3.17 1.82-7.92 2.02-10.65.44Z" transform="translate(-391.285 -486.01)" fill="#003f5e"/></g><path d="M737.54 745.85a8.7 8.7 0 0 1-4.3-1l-50.28-29a3 3 0 0 1-1.74-2.54c0-1.19.89-2.38 2.44-3.28l48.87-28.22c2.93-1.68 7.37-1.87 9.9-.4l50.28 29a3 3 0 0 1 1.75 2.54c0 1.19-.89 2.38-2.45 3.28l-48.87 28.22a11.54 11.54 0 0 1-5.6 1.4Zm.59-65.27a11.28 11.28 0 0 0-5.5 1.38l-48.87 28.21c-1.5.87-2.36 2-2.36 3.12a2.85 2.85 0 0 0 1.65 2.38l50.28 29c2.49 1.43 6.84 1.25 9.72-.41l48.87-28.21c1.49-.87 2.35-2 2.35-3.12a2.85 2.85 0 0 0-1.65-2.38l-50.28-29a8.56 8.56 0 0 0-4.21-.97Z" fill="#00fcf8" stroke="#6ed6fc" stroke-width=".75" stroke-miterlimit="10"/><circle style="mix-blend-mode:lighten" r="3.79" transform="matrix(1.19958 0 0 1.08218 695.328 703.53)" fill="url(#eJ9tTp62raB14-fill)"/><path d="M695.59 703.53a1.08 1.08 0 1 1-2.16-.02 1.08 1.08 0 0 1 2.16.02Z" transform="translate(.876 .01)" fill="#00fcf8"/><g transform="translate(737.977 712.979)" style="animation:eJ9tTp62raB16_ts__ts 4000ms linear infinite normal forwards"><path d="m733.05 736.51-35.84-20.69c-2.72-1.57-2.38-4.32.77-6.13l34.3-19.81c3.15-1.81 7.9-2 10.63-.44l35.83 20.69c2.73 1.57 2.38 4.32-.76 6.13l-34.31 19.81c-3.14 1.82-7.9 2.01-10.62.44Z" transform="translate(-737.977 -712.979)" fill="#003f5e"/></g><path d="M360.91 670.18a8.85 8.85 0 0 1-4.31-1l-50.28-29a3 3 0 0 1-1.74-2.54c0-1.19.89-2.39 2.45-3.29l48.87-28.21c2.92-1.69 7.36-1.87 9.9-.41l50.28 29a3 3 0 0 1 1.74 2.54c0 1.19-.89 2.39-2.44 3.28l-48.87 28.22a11.54 11.54 0 0 1-5.6 1.41Zm.58-65.26a11.3 11.3 0 0 0-5.5 1.37l-48.87 28.21c-1.49.87-2.35 2-2.35 3.13a2.82 2.82 0 0 0 1.65 2.37l50.28 29c2.48 1.44 6.84 1.25 9.71-.4l48.87-28.22c1.5-.86 2.36-2 2.36-3.12a2.86 2.86 0 0 0-1.65-2.38l-50.28-29a8.63 8.63 0 0 0-4.22-.96Z" fill="#6ed6fc" stroke="#6ed6fc" stroke-width=".75" stroke-miterlimit="10"/><ellipse style="mix-blend-mode:lighten" rx="31.96" ry="18.45" transform="translate(397.57 654.74)" opacity=".52" fill="url(#eJ9tTp62raB18-fill)"/><circle style="mix-blend-mode:lighten" r="3.79" transform="matrix(1.26205 0 0 1.23442 392.26 653.66)" fill="url(#eJ9tTp62raB19-fill)"/><path d="M393.67 653.66a1.08 1.08 0 1 1-2.16-.02 1.08 1.08 0 0 1 2.16.02Z" transform="translate(-.225 .01)" fill="#00fcf8"/><g transform="translate(361.343 637.312)" style="animation:eJ9tTp62raB21_ts__ts 4000ms linear infinite normal forwards"><path d="m356.41 660.85-35.83-20.69c-2.73-1.58-2.38-4.32.76-6.14l34.31-19.81c3.14-1.81 7.9-2 10.62-.44l35.84 20.69c2.72 1.58 2.38 4.32-.77 6.14L367 660.41c-3.11 1.81-7.86 2.01-10.59.44Z" transform="translate(-361.343 -637.312)" fill="#003f5e"/></g><g><g transform="translate(587.794 564.82)" style="animation:eJ9tTp62raB23_ts__ts 4000ms linear infinite normal forwards"><path d="M569.49 522.29c26.25-11.72 62.46-12 83-.16 15.16 8.72 17.8 21.69 9 33.37a29.48 29.48 0 0 1 11.26 3.37c9 5.18 7.4 14-3.61 19.65-.48.25-1 .48-1.46.7 7.63 9 2.92 21-12.91 29.14-19.23 9.9-47.84 10.6-63.58 1.55l-84-48.28c-15.75-9.06-12.9-24.56 6.32-34.47 16.49-8.46 39.73-10.16 55.98-4.87Z" transform="translate(-587.794 -564.82)" fill="#003f5e"/></g></g><path d="m538.71 597.82-92 53.31a5.64 5.64 0 0 0-.12 9.69L508 698.53" fill="none" stroke="#6ed6fc" stroke-miterlimit="10"/><ellipse style="mix-blend-mode:lighten" rx="68.46" ry="39.52" transform="translate(624.98 497.54)" opacity=".3" fill="url(#eJ9tTp62raB25-fill)"/><ellipse style="mix-blend-mode:lighten" rx="91.83" ry="53.02" transform="matrix(1.16687 0 0 1.16239 520.973 594.432)" opacity=".46" fill="url(#eJ9tTp62raB26-fill)"/><g style="animation:eJ9tTp62raB27_c_o 4000ms linear infinite normal forwards"><ellipse style="mix-blend-mode:lighten" rx="52.64" ry="30.39" transform="translate(682.508 701.311)" opacity=".52" fill="url(#eJ9tTp62raB28-fill)"/><ellipse style="mix-blend-mode:lighten" rx="52.64" ry="30.39" transform="translate(681.44 586.04)" opacity=".52" fill="url(#eJ9tTp62raB29-fill)"/><g><circle style="mix-blend-mode:lighten" r="6.25" transform="translate(690.9 585.466)" fill="url(#eJ9tTp62raB31-fill)"/><circle r="1.78" transform="translate(690.9 585.54)" fill="#00fcf8"/></g></g><path d="m560.45 510.82-.16-.38c17.52-7.82 38.37-11.78 58.23-11.78 19.49 0 38 3.81 51.57 11.58 6.24 3.6 10.91 7.74 14 12.24a24.81 24.81 0 0 1 4.65 14.27c0 6-2.29 12.19-6.75 18.07l-.32-.24v-.41c5.25.474 10.352 2 15 4.49a17.9 17.9 0 0 1 5.91 5.17 10.57 10.57 0 0 1 2 6.08 13 13 0 0 1-3.24 8.14 29.12 29.12 0 0 1-9.42 7.23c-.63.33-1.28.63-1.94.93l-.16-.37.31-.26a18.9 18.9 0 0 1 4.8 12.33c0 4.72-1.9 9.55-5.59 14.11s-9.14 8.87-16.34 12.58l-.15-.38.19.36c-13.49 6.95-30.43 10.47-46.49 10.47-14.27 0-27.84-2.78-37.7-8.44L478.15 563a30.65 30.65 0 0 1-10.22-8.94 18.21 18.21 0 0 1-3.39-10.49c0-4.72 1.9-9.55 5.59-14.12s9.17-8.87 16.37-12.58h.05l.14.38-.19-.36c13.49-6.95 30.42-10.46 46.47-10.46a89.89 89.89 0 0 1 27.61 4l-.13.39-.16-.38.16.38-.12.38a89.09 89.09 0 0 0-27.36-4c-15.94 0-32.76 3.5-46.1 10.37l-.14-.38.18.36c-7.12 3.67-12.51 7.92-16.11 12.37s-5.41 9.11-5.41 13.61a17.52 17.52 0 0 0 3.25 10 30 30 0 0 0 10 8.7l110.67 63.63c9.67 5.56 23.13 8.32 37.29 8.32 15.94 0 32.77-3.5 46.11-10.37l.15.38-.19-.36c7.12-3.67 12.51-7.92 16.11-12.37s5.41-9.1 5.41-13.6a18.13 18.13 0 0 0-4.62-11.81l-.34-.41.49-.22c.64-.3 1.28-.6 1.9-.91a28.64 28.64 0 0 0 9.16-7 12.2 12.2 0 0 0 3.06-7.63 9.74 9.74 0 0 0-1.84-5.62 17 17 0 0 0-5.65-4.92 38.36 38.36 0 0 0-14.72-4.34l-.71-.08.43-.57c4.38-5.78 6.58-11.76 6.58-17.58a24 24 0 0 0-4.5-13.81c-3-4.37-7.58-8.45-13.75-12-13.34-7.67-31.77-11.48-51.16-11.48-19.76 0-40.51 3.95-57.9 11.72l-.14.06-.15-.05Z" fill="#6ed6fc"/><path d="m422.6 502.62 22.45 12.06a4.62 4.62 0 0 1 .17 8l-19.73 11.69a5 5 0 0 0 0 8.57l76.72 45.94a7.41 7.41 0 0 0 8.14-.35l5.49-4M527.39 591.64l-117.68 68.88a8.32 8.32 0 0 1-9.14-.47l-8.31-6.1M551.7 604.77l-6.07 3.84a4.5 4.5 0 0 0 .15 7.69L696 703.63" fill="none" stroke="#6ed6fc" stroke-miterlimit="10"/><g><path d="M520.12 762.17a8.83 8.83 0 0 1-4.31-1l-50.28-29a3 3 0 0 1-1.74-2.54c0-1.19.89-2.39 2.45-3.29l48.87-28.21c2.92-1.69 7.36-1.87 9.9-.41l50.28 29a3 3 0 0 1 1.74 2.54c0 1.19-.89 2.39-2.45 3.29l-48.87 28.21a11.4 11.4 0 0 1-5.59 1.41Zm.58-65.27a11.27 11.27 0 0 0-5.5 1.37l-48.87 28.22c-1.49.86-2.35 2-2.35 3.12a2.84 2.84 0 0 0 1.65 2.38l50.28 29c2.48 1.43 6.84 1.25 9.71-.41l48.87-28.22c1.5-.86 2.35-2 2.35-3.12a2.81 2.81 0 0 0-1.65-2.37l-50.28-29a8.56 8.56 0 0 0-4.21-.97Z" fill="#00fcf8" stroke="#00fcf8" stroke-width=".75" stroke-miterlimit="10"/><circle style="mix-blend-mode:lighten" r="3.79" transform="rotate(-76.72 697.65 30.25)" fill="url(#eJ9tTp62raB39-fill)"/><path d="M509.05 702.33a1.09 1.09 0 1 1-1.09-1.08 1.08 1.08 0 0 1 1.09 1.08Z" fill="#00fcf8"/><g transform="translate(520.552 729.295)" style="animation:eJ9tTp62raB41_ts__ts 4000ms linear infinite normal forwards"><path d="m515.62 752.83-35.83-20.69c-2.73-1.57-2.38-4.32.76-6.13l34.31-19.81c3.14-1.82 7.9-2 10.62-.44l35.84 20.69c2.72 1.57 2.38 4.32-.77 6.13l-34.3 19.81c-3.15 1.81-7.91 2.01-10.63.44Z" transform="translate(-520.552 -729.295)" fill="#003f5e"/></g></g></g><g transform="translate(593.66 455.308)" style="animation:eJ9tTp62raB42_to__to 4000ms linear infinite normal forwards"><g transform="translate(-593.66 -455.308)"><path d="m490.91 485.67 6.2.84a45 45 0 0 1 12.14-8.75c18.25-9.4 44.12-11.32 62.18-5.4 29.16-13 69.39-13.33 92.25-.19a39.71 39.71 0 0 1 8.76 6.66h6.73v13.83a19.74 19.74 0 0 1 0 3.17v.1a21.58 21.58 0 0 1-.69 3.83l-.28 1.53h-.19a29.14 29.14 0 0 1-4.38 8c.72.08 1.43.18 2.13.29l16.86-.36v12.59c.22 4.54-3.36 9.37-10.47 13-.52.27-1.06.52-1.61.77.12.14.22.29.34.43l3.29-.81.28 9.36c.042.472.058.946.05 1.42v.11c-.17 7.68-6.41 15.74-18.3 21.86-21.36 11-53.15 11.78-70.64 1.72l-93.3-53.63c-8.5-4.89-12.13-11.48-11.15-18.22Z" fill="url(#eJ9tTp62raB43-fill)"/><path d="m490.91 485.67 6.2.84a45 45 0 0 1 12.14-8.75c18.25-9.4 44.12-11.32 62.18-5.4 29.16-13 69.39-13.33 92.25-.19a39.71 39.71 0 0 1 8.76 6.66h6.73v13.83a19.74 19.74 0 0 1 0 3.17v.1a21.58 21.58 0 0 1-.69 3.83l-.28 1.53h-.19a29.14 29.14 0 0 1-4.38 8c.72.08 1.43.18 2.13.29l16.86-.36v12.59c.22 4.54-3.36 9.37-10.47 13-.52.27-1.06.52-1.61.77.12.14.22.29.34.43l3.29-.81.28 9.36c.042.472.058.946.05 1.42v.11c-.17 7.68-6.41 15.74-18.3 21.86-21.36 11-53.15 11.78-70.64 1.72l-93.3-53.63c-8.5-4.89-12.13-11.48-11.15-18.22Z" opacity=".5" fill="url(#eJ9tTp62raB44-fill)"/><path d="M571.43 457.52c29.16-13 69.39-13.33 92.25-.18 16.85 9.68 19.77 24.1 9.94 37.07a32.94 32.94 0 0 1 12.51 3.74c10 5.76 8.22 15.54-4 21.84-.52.27-1.06.53-1.61.78 8.47 10 3.24 23.31-14.35 32.37-21.36 11-53.15 11.78-70.64 1.72l-93.3-53.64c-17.49-10.06-14.33-27.29 7-38.29 18.27-9.41 44.14-11.33 62.2-5.41Z" fill="url(#eJ9tTp62raB45-fill)"/><g opacity=".5"><path d="m572.17 458.38-.46-1c14.67-6.49 32.07-9.75 48.65-9.76 16.29 0 31.8 3.15 43.2 9.63a35.66 35.66 0 0 1 11.89 10.28 21 21 0 0 1 4 12.17c0 5.15-2 10.38-5.76 15.31l-.9-.67.13-1.11a33.61 33.61 0 0 1 12.75 3.77 15.54 15.54 0 0 1 5.16 4.48 9.39 9.39 0 0 1 1.78 5.43 9.88 9.88 0 0 1-.73 3.67 14.94 14.94 0 0 1-3.68 5.18 27.78 27.78 0 0 1-6.52 4.47c-.55.28-1.09.54-1.64.79l-.47-1 .86-.72a17.84 17.84 0 0 1 3.12 5.13 15 15 0 0 1 1.05 5.5c0 4.1-1.66 8.24-4.81 12.09A42.75 42.75 0 0 1 666 552.55l-.45-1 .51 1c-11.34 5.77-25.5 8.68-38.94 8.68a82.12 82.12 0 0 1-17.19-1.74 51.66 51.66 0 0 1-14.49-5.29l-91.86-52.27a26.25 26.25 0 0 1-8.74-7.58 15.69 15.69 0 0 1-3-9.06c0-4.09 1.67-8.23 4.82-12.09a42.75 42.75 0 0 1 13.84-10.54l.46 1-.52-1c11.34-5.77 25.49-8.67 38.93-8.68a76.11 76.11 0 0 1 23.16 3.34l-.35 1.06-.46-1 .46 1-.35 1.06a74 74 0 0 0-22.46-3.23c-13.11 0-27 2.86-37.9 8.43l-.45-1 .51 1a40.73 40.73 0 0 0-13.12 10c-2.9 3.56-4.32 7.21-4.32 10.69a13.5 13.5 0 0 0 2.56 7.8 24.06 24.06 0 0 0 8 6.91l91.86 52.26a48.9 48.9 0 0 0 13.85 5A79.35 79.35 0 0 0 627 559c13.11 0 27-2.86 37.91-8.44l.45 1-.52-1a40.47 40.47 0 0 0 13.16-9.95c2.9-3.56 4.31-7.2 4.31-10.69a12.66 12.66 0 0 0-.9-4.7 15.64 15.64 0 0 0-2.74-4.49l-1-1.12 1.35-.61c.53-.24 1-.48 1.54-.74a22.75 22.75 0 0 0 7.44-5.56 11.39 11.39 0 0 0 1.78-2.93 7.6 7.6 0 0 0 .58-2.85 7.19 7.19 0 0 0-1.38-4.17 13.31 13.31 0 0 0-4.44-3.81 31.31 31.31 0 0 0-11.88-3.5l-2-.22 1.19-1.56c3.55-4.64 5.3-9.4 5.3-14a18.8 18.8 0 0 0-3.59-10.9 33.6 33.6 0 0 0-11.16-9.62 68.28 68.28 0 0 0-19.13-7 109.28 109.28 0 0 0-22.95-2.33c-16.29 0-33.41 3.23-47.73 9.56l-.4.18-.41-.14Z" fill="url(#eJ9tTp62raB47-fill)"/></g><path d="M579.17 463.87c23.09-10.32 54.94-10.55 73.05-.15 13.34 7.67 15.66 19.09 7.87 29.36a26 26 0 0 1 9.91 3c7.93 4.56 6.51 12.3-3.18 17.29-.41.21-.84.42-1.28.61 6.71 7.94 2.57 18.46-11.36 25.64-16.91 8.71-42.09 9.32-55.94 1.36l-73.88-42.48c-13.85-8-11.35-21.6 5.57-30.32 14.45-7.47 34.94-9 49.24-4.31Z" fill="#5cf1ff"/><path d="M582.29 468.78c18.67-8.34 44.43-8.53 59.06-.12 10.79 6.21 12.66 15.44 6.37 23.74a20.93 20.93 0 0 1 8 2.4c6.41 3.68 5.26 9.94-2.57 14l-1 .5c5.42 6.41 2.07 14.92-9.19 20.72-13.68 7-34 7.54-45.23 1.1L538 496.76c-11.2-6.44-9.18-17.47 4.5-24.51 11.67-6.03 28.23-7.25 39.79-3.47Z" opacity=".5" fill="#002344"/><path d="m491.815 418.669 6.005-.059a45.12 45.12 0 0 1 12.18-8.75c18.26-9.4 44.13-11.33 62.19-5.41 29.16-13 69.38-13.32 92.24-.18a39.47 39.47 0 0 1 8.76 6.66h6.73v13.83a18.64 18.64 0 0 1 0 3.17v.07a20.56 20.56 0 0 1-.69 3.83l-.27 1.54h-.2a29 29 0 0 1-4.37 8q1.08.12 2.13.3l16.11-.19v13c.21 4.54-2.62 8.8-9.73 12.46q-.8.4-1.62.78c.12.14.23.28.34.43l3.29-.82.29 9.37c.025.47.025.94 0 1.41v.11c-.18 7.67-6.41 15.73-18.31 21.86-21.36 11-53.14 11.78-70.64 1.72l-93.3-53.64c-8.5-4.89-12.578-10.626-11.598-17.366Z" transform="translate(-1)" fill="url(#eJ9tTp62raB50-fill)"/><path d="m491.673 417.884 6.147.726a45.12 45.12 0 0 1 12.18-8.75c18.26-9.4 44.13-11.33 62.19-5.41 29.16-13 69.38-13.32 92.24-.18a39.47 39.47 0 0 1 8.76 6.66h6.73v13.83a18.64 18.64 0 0 1 0 3.17v.07a20.56 20.56 0 0 1-.69 3.83l-.27 1.54h-.2a29 29 0 0 1-4.37 8q1.08.12 2.13.3l16.11-.19v13c.21 4.54-2.62 8.8-9.73 12.46q-.8.4-1.62.78c.12.14.23.28.34.43l3.29-.82.29 9.37c.025.47.025.94 0 1.41v.11c-.18 7.67-6.41 15.73-18.31 21.86-21.36 11-53.14 11.78-70.64 1.72l-93.3-53.64c-8.5-4.89-12.685-10.376-11.705-17.116Z" transform="translate(-1)" opacity=".5" fill="url(#eJ9tTp62raB51-fill)"/><path d="m490.23 418.23 202.2 22.67V507c.21 4.54-2.33 9-9.44 12.69q-.79.41-1.62.78c.12.14-.75.41-.64.55s13.68 15.61-13.71 31.82c-21.36 11-53.14 11.78-70.64 1.72l-93.29-53.66c-8.51-4.89-13.33-11.58-12.36-18.32Z" transform="translate(.457 .602)" opacity=".5" fill="#73f8ff"/><path d="M571 389.89c29.17-13 69.39-13.32 92.25-.18 16.85 9.69 19.78 24.1 9.94 37.07a32.76 32.76 0 0 1 12.51 3.75c10 5.76 8.23 15.53-4 21.83q-.8.4-1.62.78c8.47 10 3.24 23.31-14.35 32.37-21.36 11-53.15 11.78-70.64 1.72l-93.3-53.64c-17.49-10.06-14.33-27.29 7-38.29 18.28-9.4 44.21-11.3 62.21-5.41Z" transform="translate(0 .641)" fill="url(#eJ9tTp62raB53-fill)"/><path d="m571.61 390.83-.46-1c14.73-6.53 32.2-9.82 48.86-9.82 16.35 0 31.93 3.16 43.38 9.69a35.91 35.91 0 0 1 11.94 10.3 21.18 21.18 0 0 1 4 12.26c0 5.18-2 10.45-5.78 15.42l-.9-.68.12-1.11a33.69 33.69 0 0 1 12.81 3.81 15.73 15.73 0 0 1 5.19 4.51 9.44 9.44 0 0 1 1.78 5.47 9.85 9.85 0 0 1-.74 3.7 14.94 14.94 0 0 1-3.69 5.21 27.77 27.77 0 0 1-6.55 4.51c-.54.28-1.09.54-1.64.79l-.47-1 .86-.73a18.06 18.06 0 0 1 3.14 5.16 15.23 15.23 0 0 1 1 5.55c0 4.12-1.67 8.29-4.83 12.17a43.05 43.05 0 0 1-13.9 10.61l-.52-1 .75.85-.1.09-.13.06c-11.39 5.82-25.61 8.74-39.11 8.74a81.53 81.53 0 0 1-17.26-1.75 51.66 51.66 0 0 1-14.56-5.33l-92.25-52.63a26.5 26.5 0 0 1-8.77-7.64 15.74 15.74 0 0 1-3-9.12c0-4.12 1.67-8.29 4.83-12.17a43 43 0 0 1 13.91-10.62l.46 1-.51-1c11.38-5.82 25.59-8.74 39.09-8.74a76.41 76.41 0 0 1 23.44 3.37l-.35 1.07-.46-1 .46 1-.35 1.07a74 74 0 0 0-22.56-3.26c-13.17 0-27.09 2.88-38.06 8.5h-.06l-.46-1 .52 1a40.74 40.74 0 0 0-13.18 10c-2.91 3.58-4.33 7.25-4.33 10.76a13.59 13.59 0 0 0 2.57 7.85 24.17 24.17 0 0 0 8 7L596 485.38a49.22 49.22 0 0 0 13.91 5.08 80.08 80.08 0 0 0 16.78 1.7c13.17 0 27.1-2.88 38.08-8.5l.51 1-.74-.84.1-.09.13-.07a40.82 40.82 0 0 0 13.17-10c2.91-3.58 4.33-7.25 4.33-10.76a13 13 0 0 0-.9-4.74 15.85 15.85 0 0 0-2.76-4.52l-1-1.13 1.36-.62c.53-.24 1-.48 1.55-.74a23 23 0 0 0 7.38-5.59 11.3 11.3 0 0 0 1.79-3 7.66 7.66 0 0 0 .58-2.87 7.31 7.31 0 0 0-1.38-4.2 13.54 13.54 0 0 0-4.46-3.83 31.4 31.4 0 0 0-11.93-3.53l-2-.22 1.2-1.58c3.56-4.67 5.32-9.45 5.32-14.06a18.92 18.92 0 0 0-3.61-11 33.85 33.85 0 0 0-11.21-9.69 68.43 68.43 0 0 0-19.21-7 108.73 108.73 0 0 0-23-2.35c-16.36 0-33.56 3.25-47.94 9.63l-.4.17-.41-.13Z" opacity=".5" fill="url(#eJ9tTp62raB54-fill)"/><path d="m577.88 405.28-.32-.71a85.14 85.14 0 0 1 33.63-6.76c11.26 0 22 2.18 29.86 6.68a24.69 24.69 0 0 1 8.22 7.12 14.56 14.56 0 0 1 2.76 8.44 17.56 17.56 0 0 1-4 10.62l-.62-.47.09-.77a23.1 23.1 0 0 1 8.81 2.63 10.59 10.59 0 0 1 3.57 3.1 6.51 6.51 0 0 1 1.24 3.77 6.89 6.89 0 0 1-.51 2.54 10.4 10.4 0 0 1-2.55 3.59 19.1 19.1 0 0 1-4.5 3.1c-.38.2-.76.37-1.14.55l-.32-.71.59-.5a12.44 12.44 0 0 1 2.16 3.56 10.28 10.28 0 0 1 .73 3.81 13.33 13.33 0 0 1-3.33 8.38 29.64 29.64 0 0 1-9.56 7.31l-.36-.69.51.58-.07.06-.08.05c-7.84 4-17.63 6-26.93 6a56.23 56.23 0 0 1-11.88-1.21 35.49 35.49 0 0 1-10-3.67l-63.5-36.23a18.09 18.09 0 0 1-6-5.26 10.89 10.89 0 0 1-2.05-6.28 13.37 13.37 0 0 1 3.34-8.38 29.51 29.51 0 0 1 9.56-7.3l.32.7-.36-.68c7.84-4 17.63-6 26.91-6a52.29 52.29 0 0 1 16 2.32l-.24.73-.32-.71.32.71-.25.73a51 51 0 0 0-15.53-2.24c-9.06 0-18.64 2-26.19 5.85l-.32-.71.36.69a27.93 27.93 0 0 0-9.07 6.9 11.84 11.84 0 0 0-3 7.41 9.43 9.43 0 0 0 1.77 5.41 16.71 16.71 0 0 0 5.54 4.79l63.5 36.23a33.84 33.84 0 0 0 9.58 3.5 54.86 54.86 0 0 0 11.53 1.14c9.07 0 18.66-2 26.21-5.85l.36.69-.51-.58.07-.06.08-.05a27.93 27.93 0 0 0 9.07-6.9 11.78 11.78 0 0 0 3-7.41 8.85 8.85 0 0 0-.62-3.26 10.86 10.86 0 0 0-1.9-3.11l-.66-.78.94-.42c.36-.17.72-.33 1.06-.51a15.85 15.85 0 0 0 5.09-3.85 8.09 8.09 0 0 0 1.23-2 5.25 5.25 0 0 0 .4-2 5 5 0 0 0-1-2.89 9.18 9.18 0 0 0-3.06-2.64 21.59 21.59 0 0 0-8.22-2.43l-1.35-.16.82-1.08a16 16 0 0 0 3.67-9.68 13 13 0 0 0-2.49-7.56 23.2 23.2 0 0 0-7.71-6.67 46.79 46.79 0 0 0-13.21-4.8 74.86 74.86 0 0 0-15.86-1.62 83.62 83.62 0 0 0-33 6.62l-.27.13-.29-.1Z" opacity=".5" fill="#002344"/><g style="animation:eJ9tTp62raB63_c_o 4000ms linear infinite normal forwards"><circle style="mix-blend-mode:lighten" r="5.96" transform="translate(627.14 372.89)" fill="url(#eJ9tTp62raB64-fill)"/><path d="M625.45 372.89a1.7 1.7 0 1 0 3.4.02 1.7 1.7 0 0 0-3.4-.02Z" fill="#00fcf8"/><ellipse style="mix-blend-mode:lighten" rx="65.23" ry="37.66" transform="translate(615.614 372.81)" opacity=".52" fill="url(#eJ9tTp62raB66-fill)"/></g><g transform="translate(-.243 -.068)" style="animation:eJ9tTp62raB67_c_o 4000ms linear infinite normal forwards"><circle style="mix-blend-mode:lighten" r="5.96" transform="translate(688.02 405.93)" fill="url(#eJ9tTp62raB68-fill)"/><circle r="1.7" transform="translate(688.02 405.93)" fill="#00fcf8"/><ellipse style="mix-blend-mode:lighten" rx="50.16" ry="28.96" transform="translate(675.612 405.563)" opacity=".52" fill="url(#eJ9tTp62raB70-fill)"/></g><path d="m566.24 384.19-.16-.36c16.7-7.45 36.56-11.23 55.49-11.23 18.57 0 36.25 3.64 49.14 11a40.46 40.46 0 0 1 13.35 11.66 23.67 23.67 0 0 1 4.43 13.6c0 5.74-2.18 11.61-6.43 17.22l-.31-.23v-.39a37.28 37.28 0 0 1 14.29 4.28 17 17 0 0 1 5.64 4.92 10.08 10.08 0 0 1 1.88 5.79 12.4 12.4 0 0 1-3.08 7.77 27.9 27.9 0 0 1-9 6.88c-.6.31-1.22.61-1.84.89l-.17-.35.3-.25a18 18 0 0 1 4.58 11.75c0 4.5-1.81 9.1-5.33 13.45s-8.73 8.45-15.59 12l-.14-.36.18.34c-12.86 6.62-29 10-44.3 10-13.59 0-26.53-2.64-35.92-8l-105.44-60.65a29.41 29.41 0 0 1-9.73-8.53 17.37 17.37 0 0 1-3.24-10c0-4.5 1.81-9.1 5.33-13.45s8.74-8.46 15.6-12l.13.36-.18-.34c12.85-6.62 29-10 44.28-10a85.46 85.46 0 0 1 26.31 3.83l-.12.37-.16-.36.16.36-.12.37a84.68 84.68 0 0 0-26.07-3.8c-15.18 0-31.21 3.34-43.92 9.89h-.05l-.13-.37.18.35c-6.79 3.49-11.93 7.54-15.36 11.78s-5.15 8.68-5.15 13a16.64 16.64 0 0 0 3.09 9.55 28.37 28.37 0 0 0 9.49 8.29l105.46 60.63c9.22 5.3 22 7.94 35.53 7.94 15.19 0 31.23-3.34 43.94-9.89l.14.36-.18-.35c6.79-3.49 11.92-7.54 15.35-11.78s5.15-8.68 5.15-13a17.25 17.25 0 0 0-4.39-11.25l-.33-.39.46-.22c.62-.28 1.23-.56 1.81-.87a27.26 27.26 0 0 0 8.74-6.68 11.66 11.66 0 0 0 2.91-7.28 9.28 9.28 0 0 0-1.75-5.35 16.31 16.31 0 0 0-5.38-4.69 36.84 36.84 0 0 0-14-4.18l-.68-.08.41-.54c4.17-5.5 6.27-11.21 6.27-16.75a22.88 22.88 0 0 0-4.29-13.16 39.4 39.4 0 0 0-13.1-11.43C657.6 377 640 373.37 621.57 373.38c-18.83 0-38.6 3.76-55.17 11.16l-.14.06h-.14Z" fill="#5ee2ff"/><path d="M603.63 434.11c-1.54.91-1.51 2.29 0 3.07 1.81.78 3.876.7 5.62-.22 1.53-.91 1.51-2.28-.06-3.07a6.5 6.5 0 0 0-5.56.22Z" opacity=".2" fill="#4dfbff" style="animation:eJ9tTp62raB72_c_o 4000ms linear infinite normal forwards"/><path d="M594.79 429.67c-1.53.91-1.51 2.29.06 3.07a6.5 6.5 0 0 0 5.61-.22c1.54-.91 1.51-2.28-.05-3.07a6.52 6.52 0 0 0-5.62.22Z" transform="translate(.206 .206)" opacity=".2" fill="#4dfbff" style="animation:eJ9tTp62raB73_c_o 4000ms linear infinite normal forwards"/><path d="M586 425.23c-1.54.91-1.51 2.28 0 3.07 1.81.78 3.876.7 5.62-.22 1.53-.91 1.51-2.28-.06-3.07a6.5 6.5 0 0 0-5.56.22Z" opacity=".2" fill="#4dfbff" style="animation:eJ9tTp62raB74_c_o 4000ms linear infinite normal forwards"/><path d="M523.31 504.72a1 1 0 0 0 0 1.86c1.01.51 2.2.51 3.21 0a1 1 0 0 0 0-1.86 3.56 3.56 0 0 0-3.21 0ZM518.31 501.84a1 1 0 0 0 0 1.85c1.01.51 2.2.51 3.21 0a1 1 0 0 0 0-1.85 3.5 3.5 0 0 0-3.21 0ZM513.31 499a1 1 0 0 0 0 1.85c1.01.51 2.2.51 3.21 0a1 1 0 0 0 0-1.85 3.56 3.56 0 0 0-3.21 0Z" fill="#2defff"/></g></g><g><g transform="translate(737.975 675.12)" style="animation:eJ9tTp62raB79_to__to 4000ms linear infinite normal forwards"><g transform="translate(-737.975 -675.12)"><path d="M785.15 692.84v-7.41H766l-22.6-13c-3-1.74-8.29-1.52-11.77.49l-21.75 12.56h-19.09v7.83a3.41 3.41 0 0 0 2 3.15l39.69 22.91c3 1.74 8.28 1.53 11.76-.48l38-21.94c2.05-1.21 3.02-2.72 2.91-4.11Z" fill="url(#eJ9tTp62raB80-fill)"/><path d="M785.15 692.84v-7.41H766l-22.6-13c-3-1.74-8.29-1.52-11.77.49l-21.75 12.56h-19.09v7.83a3.41 3.41 0 0 0 2 3.15l39.69 22.91c3 1.74 8.28 1.53 11.76-.48l38-21.94c2.05-1.21 3.02-2.72 2.91-4.11Z" transform="translate(.086)" opacity=".5" fill="#085278"/><path d="M743.44 672.38a10.63 10.63 0 0 0-5.47-1.17v49.28a13.59 13.59 0 0 0 6.31-1.65l38-21.94c2-1.16 3-2.67 2.87-4.06v-7.41H766Z" fill="url(#eJ9tTp62raB82-fill)"/><path d="m732.52 711.49-39.69-22.91c-3-1.74-2.64-4.78.84-6.79l38-21.94c3.48-2 8.75-2.23 11.77-.49l39.69 22.91c3 1.75 2.64 4.79-.85 6.8l-38 21.94c-3.48 1.99-8.75 2.23-11.76.48Z" fill="#2a8791"/><path d="m732.52 711.49-39.69-22.91c-3-1.74-2.64-4.78.84-6.79l38-21.94c3.48-2 8.75-2.23 11.77-.49l39.69 22.91c3 1.75 2.64 4.79-.85 6.8l-38 21.94c-3.48 1.99-8.75 2.23-11.76.48Z" opacity=".5" fill="url(#eJ9tTp62raB84-fill)"/><path d="M733.58 706.43 701.6 688c-2.43-1.41-2.13-3.86.68-5.48l30.62-17.67c2.8-1.62 7.05-1.8 9.48-.4l32 18.47c2.43 1.4 2.12 3.85-.69 5.47L743.06 706c-2.81 1.66-7.06 1.83-9.48.43Z" fill="#5cf1ff"/><path d="m702.28 684.89 30.62-17.68c2.8-1.62 7.05-1.79 9.48-.39l32 18.46a3.63 3.63 0 0 1 1.3 1.2c.7-1.29.3-2.67-1.3-3.59l-32-18.47c-2.43-1.4-6.68-1.22-9.48.4l-30.62 17.67c-2.11 1.22-2.81 2.91-2 4.27a5 5 0 0 1 2-1.87Z" fill="#42cce8"/><path d="m733.85 711.49-39.69-22.91c-3-1.74-3.74-4.3.84-6.79l38-21.94a13.6 13.6 0 0 1 6-1.65 13.84 13.84 0 0 0-7.29 1.65l-38 21.94c-3.48 2-3.86 5.05-.84 6.79l39.69 22.91a10.76 10.76 0 0 0 5.81 1.16 10 10 0 0 1-4.52-1.16Z" opacity=".5" fill="url(#eJ9tTp62raB87-fill)"/><path d="m782.28 692.38-38 21.94c-3.48 2-8.75 2.22-11.76.48l-39.69-22.91a3.41 3.41 0 0 1-2-3.15v1.62a3.4 3.4 0 0 0 2 3.15l39.69 22.92c3 1.74 8.28 1.52 11.76-.49l38-21.94c2-1.16 3-2.66 2.87-4.06v-1.62c.11 1.39-.86 2.9-2.87 4.06Z" opacity=".5" fill="#2185a7"/><path d="m734.53 702-25.09-14.48c-1.9-1.11-1.66-3 .54-4.3l24-13.86a8.28 8.28 0 0 1 7.44-.31l25.08 14.48c1.91 1.1 1.67 3-.53 4.29l-24 13.87c-2.21 1.23-5.54 1.37-7.44.31Z" opacity=".57" fill="#002344"/><path d="M785.15 685.43c.01-.14.01-.28 0-.42v-20.7l-32.88.15-8.83-5.1c-3-1.74-8.29-1.52-11.77.49l-8.21 4.74-32.67.14v20.7a3.4 3.4 0 0 0 2 3.15l39.69 22.91c3 1.75 8.28 1.53 11.76-.48l38-21.94c1.81-1.05 2.78-2.37 2.87-3.64Z" transform="translate(-.083 .055)" opacity=".5" fill="#5cf1ff"/><path d="M785.15 664.31v-7.41H766l-22.6-13c-3-1.75-8.29-1.53-11.77.48l-21.71 12.52h-19.13v7.83a3.39 3.39 0 0 0 2 3.15l39.69 22.92c3 1.74 8.28 1.52 11.76-.49l38-21.94c2.05-1.16 3.02-2.66 2.91-4.06Z" fill="#2a8791"/><path d="M785.15 664.31v-7.41H766l-22.6-13c-3-1.75-8.29-1.53-11.77.48l-21.71 12.52h-19.13v7.83a3.39 3.39 0 0 0 2 3.15l39.69 22.92c3 1.74 8.28 1.52 11.76-.49l38-21.94c2.05-1.16 3.02-2.66 2.91-4.06Z" opacity=".5" fill="url(#eJ9tTp62raB92-fill)"/><path d="M743.44 643.86a10.63 10.63 0 0 0-5.47-1.17V692a13.59 13.59 0 0 0 6.31-1.66l38-21.94c2-1.16 3-2.66 2.87-4.06v-7.44H766Z" transform="translate(.248)" fill="url(#eJ9tTp62raB93-fill)"/><path d="m732.52 683-39.69-22.91c-3-1.75-2.64-4.79.84-6.8l38-21.94c3.48-2 8.75-2.23 11.77-.48l39.69 22.91c3 1.74 2.64 4.78-.85 6.79l-38 21.94c-3.48 1.98-8.75 2.2-11.76.49Z" fill="url(#eJ9tTp62raB94-fill)"/><path d="m733.85 683-39.69-22.91c-3-1.75-3.74-4.3.84-6.8l38-21.94a13.46 13.46 0 0 1 6-1.64 13.84 13.84 0 0 0-7.29 1.64l-38 21.94c-3.48 2-3.86 5-.84 6.8L732.52 683a10.85 10.85 0 0 0 5.81 1.16 10.09 10.09 0 0 1-4.48-1.16Z" opacity=".5" fill="url(#eJ9tTp62raB95-fill)"/><path d="m782.28 663.85-38 21.94c-3.48 2-8.75 2.23-11.76.49l-39.69-22.92a3.39 3.39 0 0 1-2-3.15v1.62a3.41 3.41 0 0 0 2 3.16l39.69 22.91c3 1.74 8.28 1.52 11.76-.49l38-21.93c2-1.16 3-2.67 2.87-4.07v-1.62c.11 1.4-.86 2.9-2.87 4.06Z" opacity=".5" fill="url(#eJ9tTp62raB96-fill)"/><path d="M737.72 677.34a8.09 8.09 0 0 1-3.93-.9l-29.35-17a2.88 2.88 0 0 1-1.65-2.44 3.89 3.89 0 0 1 2.28-3.1l28.1-16.22c2.65-1.53 6.69-1.69 9-.36l29.35 16.94a2.9 2.9 0 0 1 1.66 2.44 3.86 3.86 0 0 1-2.28 3.1l-28.1 16.23a10.5 10.5 0 0 1-5.08 1.31Zm-3.63-1.42c2.14 1.24 5.91 1.07 8.4-.36l28.1-16.22a3.33 3.33 0 0 0 2-2.59 2.32 2.32 0 0 0-1.36-1.92l-29.34-16.94c-2.15-1.24-5.92-1.08-8.41.36l-28.09 16.22a3.33 3.33 0 0 0-2 2.58 2.3 2.3 0 0 0 1.35 1.92Z" opacity=".5" fill="#002344"/></g></g></g><g transform="translate(-215.746 18.883)"><g transform="translate(737.975 675.12)" style="animation:eJ9tTp62raB99_to__to 4000ms linear infinite normal forwards"><g transform="translate(-737.975 -675.12)"><path d="M785.15 692.84v-7.41H766l-22.6-13c-3-1.74-8.29-1.52-11.77.49l-21.75 12.56h-19.09v7.83a3.41 3.41 0 0 0 2 3.15l39.69 22.91c3 1.74 8.28 1.53 11.76-.48l38-21.94c2.05-1.21 3.02-2.72 2.91-4.11Z" fill="url(#eJ9tTp62raB100-fill)"/><path d="M785.15 692.84v-7.41H766l-22.6-13c-3-1.74-8.29-1.52-11.77.49l-21.75 12.56h-19.09v7.83a3.41 3.41 0 0 0 2 3.15l39.69 22.91c3 1.74 8.28 1.53 11.76-.48l38-21.94c2.05-1.21 3.02-2.72 2.91-4.11Z" transform="translate(.086)" opacity=".5" fill="#085278"/><path d="M743.44 672.38a10.63 10.63 0 0 0-5.47-1.17v49.28a13.59 13.59 0 0 0 6.31-1.65l38-21.94c2-1.16 3-2.67 2.87-4.06v-7.41H766Z" fill="url(#eJ9tTp62raB102-fill)"/><path d="m732.52 711.49-39.69-22.91c-3-1.74-2.64-4.78.84-6.79l38-21.94c3.48-2 8.75-2.23 11.77-.49l39.69 22.91c3 1.75 2.64 4.79-.85 6.8l-38 21.94c-3.48 1.99-8.75 2.23-11.76.48Z" fill="#2a8791"/><path d="m732.52 711.49-39.69-22.91c-3-1.74-2.64-4.78.84-6.79l38-21.94c3.48-2 8.75-2.23 11.77-.49l39.69 22.91c3 1.75 2.64 4.79-.85 6.8l-38 21.94c-3.48 1.99-8.75 2.23-11.76.48Z" opacity=".5" fill="url(#eJ9tTp62raB104-fill)"/><path d="M733.58 706.43 701.6 688c-2.43-1.41-2.13-3.86.68-5.48l30.62-17.67c2.8-1.62 7.05-1.8 9.48-.4l32 18.47c2.43 1.4 2.12 3.85-.69 5.47L743.06 706c-2.81 1.66-7.06 1.83-9.48.43Z" fill="#5cf1ff"/><path d="m702.28 684.89 30.62-17.68c2.8-1.62 7.05-1.79 9.48-.39l32 18.46a3.63 3.63 0 0 1 1.3 1.2c.7-1.29.3-2.67-1.3-3.59l-32-18.47c-2.43-1.4-6.68-1.22-9.48.4l-30.62 17.67c-2.11 1.22-2.81 2.91-2 4.27a5 5 0 0 1 2-1.87Z" fill="#42cce8"/><path d="m733.85 711.49-39.69-22.91c-3-1.74-3.74-4.3.84-6.79l38-21.94a13.6 13.6 0 0 1 6-1.65 13.84 13.84 0 0 0-7.29 1.65l-38 21.94c-3.48 2-3.86 5.05-.84 6.79l39.69 22.91a10.76 10.76 0 0 0 5.81 1.16 10 10 0 0 1-4.52-1.16Z" opacity=".5" fill="url(#eJ9tTp62raB107-fill)"/><path d="m782.28 692.38-38 21.94c-3.48 2-8.75 2.22-11.76.48l-39.69-22.91a3.41 3.41 0 0 1-2-3.15v1.62a3.4 3.4 0 0 0 2 3.15l39.69 22.92c3 1.74 8.28 1.52 11.76-.49l38-21.94c2-1.16 3-2.66 2.87-4.06v-1.62c.11 1.39-.86 2.9-2.87 4.06Z" opacity=".5" fill="#2185a7"/><path d="m734.53 702-25.09-14.48c-1.9-1.11-1.66-3 .54-4.3l24-13.86a8.28 8.28 0 0 1 7.44-.31l25.08 14.48c1.91 1.1 1.67 3-.53 4.29l-24 13.87c-2.21 1.23-5.54 1.37-7.44.31Z" opacity=".57" fill="#002344"/><path d="M785.15 685.43c.01-.14.01-.28 0-.42v-20.7l-32.88.15-8.83-5.1c-3-1.74-8.29-1.52-11.77.49l-8.21 4.74-32.67.14v20.7a3.4 3.4 0 0 0 2 3.15l39.69 22.91c3 1.75 8.28 1.53 11.76-.48l38-21.94c1.81-1.05 2.78-2.37 2.87-3.64Z" transform="translate(-.083 .055)" opacity=".5" fill="#5cf1ff"/><path d="M785.15 664.31v-7.41H766l-22.6-13c-3-1.75-8.29-1.53-11.77.48l-21.71 12.52h-19.13v7.83a3.39 3.39 0 0 0 2 3.15l39.69 22.92c3 1.74 8.28 1.52 11.76-.49l38-21.94c2.05-1.16 3.02-2.66 2.91-4.06Z" fill="#2a8791"/><path d="M785.15 664.31v-7.41H766l-22.6-13c-3-1.75-8.29-1.53-11.77.48l-21.71 12.52h-19.13v7.83a3.39 3.39 0 0 0 2 3.15l39.69 22.92c3 1.74 8.28 1.52 11.76-.49l38-21.94c2.05-1.16 3.02-2.66 2.91-4.06Z" opacity=".5" fill="url(#eJ9tTp62raB112-fill)"/><path d="M743.44 643.86a10.63 10.63 0 0 0-5.47-1.17V692a13.59 13.59 0 0 0 6.31-1.66l38-21.94c2-1.16 3-2.66 2.87-4.06v-7.44H766Z" transform="translate(.248)" fill="url(#eJ9tTp62raB113-fill)"/><path d="m732.52 683-39.69-22.91c-3-1.75-2.64-4.79.84-6.8l38-21.94c3.48-2 8.75-2.23 11.77-.48l39.69 22.91c3 1.74 2.64 4.78-.85 6.79l-38 21.94c-3.48 1.98-8.75 2.2-11.76.49Z" fill="url(#eJ9tTp62raB114-fill)"/><path d="m733.85 683-39.69-22.91c-3-1.75-3.74-4.3.84-6.8l38-21.94a13.46 13.46 0 0 1 6-1.64 13.84 13.84 0 0 0-7.29 1.64l-38 21.94c-3.48 2-3.86 5-.84 6.8L732.52 683a10.85 10.85 0 0 0 5.81 1.16 10.09 10.09 0 0 1-4.48-1.16Z" opacity=".5" fill="url(#eJ9tTp62raB115-fill)"/><path d="m782.28 663.85-38 21.94c-3.48 2-8.75 2.23-11.76.49l-39.69-22.92a3.39 3.39 0 0 1-2-3.15v1.62a3.41 3.41 0 0 0 2 3.16l39.69 22.91c3 1.74 8.28 1.52 11.76-.49l38-21.93c2-1.16 3-2.67 2.87-4.07v-1.62c.11 1.4-.86 2.9-2.87 4.06Z" opacity=".5" fill="url(#eJ9tTp62raB116-fill)"/><path d="M737.72 677.34a8.09 8.09 0 0 1-3.93-.9l-29.35-17a2.88 2.88 0 0 1-1.65-2.44 3.89 3.89 0 0 1 2.28-3.1l28.1-16.22c2.65-1.53 6.69-1.69 9-.36l29.35 16.94a2.9 2.9 0 0 1 1.66 2.44 3.86 3.86 0 0 1-2.28 3.1l-28.1 16.23a10.5 10.5 0 0 1-5.08 1.31Zm-3.63-1.42c2.14 1.24 5.91 1.07 8.4-.36l28.1-16.22a3.33 3.33 0 0 0 2-2.59 2.32 2.32 0 0 0-1.36-1.92l-29.34-16.94c-2.15-1.24-5.92-1.08-8.41.36l-28.09 16.22a3.33 3.33 0 0 0-2 2.58 2.3 2.3 0 0 0 1.35 1.92Z" opacity=".5" fill="#002344"/></g></g></g><g transform="translate(-376.45 -75.13)"><g transform="translate(737.975 675.12)" style="animation:eJ9tTp62raB119_to__to 4000ms linear infinite normal forwards"><g transform="translate(-737.975 -675.12)"><path d="M785.15 692.84v-7.41H766l-22.6-13c-3-1.74-8.29-1.52-11.77.49l-21.75 12.56h-19.09v7.83a3.41 3.41 0 0 0 2 3.15l39.69 22.91c3 1.74 8.28 1.53 11.76-.48l38-21.94c2.05-1.21 3.02-2.72 2.91-4.11Z" fill="url(#eJ9tTp62raB120-fill)"/><path d="M785.15 692.84v-7.41H766l-22.6-13c-3-1.74-8.29-1.52-11.77.49l-21.75 12.56h-19.09v7.83a3.41 3.41 0 0 0 2 3.15l39.69 22.91c3 1.74 8.28 1.53 11.76-.48l38-21.94c2.05-1.21 3.02-2.72 2.91-4.11Z" transform="translate(.086)" opacity=".5" fill="#085278"/><path d="M743.44 672.38a10.63 10.63 0 0 0-5.47-1.17v49.28a13.59 13.59 0 0 0 6.31-1.65l38-21.94c2-1.16 3-2.67 2.87-4.06v-7.41H766Z" fill="url(#eJ9tTp62raB122-fill)"/><path d="m732.52 711.49-39.69-22.91c-3-1.74-2.64-4.78.84-6.79l38-21.94c3.48-2 8.75-2.23 11.77-.49l39.69 22.91c3 1.75 2.64 4.79-.85 6.8l-38 21.94c-3.48 1.99-8.75 2.23-11.76.48Z" fill="#2a8791"/><path d="m732.52 711.49-39.69-22.91c-3-1.74-2.64-4.78.84-6.79l38-21.94c3.48-2 8.75-2.23 11.77-.49l39.69 22.91c3 1.75 2.64 4.79-.85 6.8l-38 21.94c-3.48 1.99-8.75 2.23-11.76.48Z" opacity=".5" fill="url(#eJ9tTp62raB124-fill)"/><path d="M733.58 706.43 701.6 688c-2.43-1.41-2.13-3.86.68-5.48l30.62-17.67c2.8-1.62 7.05-1.8 9.48-.4l32 18.47c2.43 1.4 2.12 3.85-.69 5.47L743.06 706c-2.81 1.66-7.06 1.83-9.48.43Z" fill="#5cf1ff"/><path d="m702.28 684.89 30.62-17.68c2.8-1.62 7.05-1.79 9.48-.39l32 18.46a3.63 3.63 0 0 1 1.3 1.2c.7-1.29.3-2.67-1.3-3.59l-32-18.47c-2.43-1.4-6.68-1.22-9.48.4l-30.62 17.67c-2.11 1.22-2.81 2.91-2 4.27a5 5 0 0 1 2-1.87Z" fill="#42cce8"/><path d="m733.85 711.49-39.69-22.91c-3-1.74-3.74-4.3.84-6.79l38-21.94a13.6 13.6 0 0 1 6-1.65 13.84 13.84 0 0 0-7.29 1.65l-38 21.94c-3.48 2-3.86 5.05-.84 6.79l39.69 22.91a10.76 10.76 0 0 0 5.81 1.16 10 10 0 0 1-4.52-1.16Z" opacity=".5" fill="url(#eJ9tTp62raB127-fill)"/><path d="m782.28 692.38-38 21.94c-3.48 2-8.75 2.22-11.76.48l-39.69-22.91a3.41 3.41 0 0 1-2-3.15v1.62a3.4 3.4 0 0 0 2 3.15l39.69 22.92c3 1.74 8.28 1.52 11.76-.49l38-21.94c2-1.16 3-2.66 2.87-4.06v-1.62c.11 1.39-.86 2.9-2.87 4.06Z" opacity=".5" fill="#2185a7"/><path d="m734.53 702-25.09-14.48c-1.9-1.11-1.66-3 .54-4.3l24-13.86a8.28 8.28 0 0 1 7.44-.31l25.08 14.48c1.91 1.1 1.67 3-.53 4.29l-24 13.87c-2.21 1.23-5.54 1.37-7.44.31Z" opacity=".57" fill="#002344"/><path d="M785.15 685.43c.01-.14.01-.28 0-.42v-20.7l-32.88.15-8.83-5.1c-3-1.74-8.29-1.52-11.77.49l-8.21 4.74-32.67.14v20.7a3.4 3.4 0 0 0 2 3.15l39.69 22.91c3 1.75 8.28 1.53 11.76-.48l38-21.94c1.81-1.05 2.78-2.37 2.87-3.64Z" transform="translate(-.083 .055)" opacity=".5" fill="#5cf1ff"/><path d="M785.15 664.31v-7.41H766l-22.6-13c-3-1.75-8.29-1.53-11.77.48l-21.71 12.52h-19.13v7.83a3.39 3.39 0 0 0 2 3.15l39.69 22.92c3 1.74 8.28 1.52 11.76-.49l38-21.94c2.05-1.16 3.02-2.66 2.91-4.06Z" fill="#2a8791"/><path d="M785.15 664.31v-7.41H766l-22.6-13c-3-1.75-8.29-1.53-11.77.48l-21.71 12.52h-19.13v7.83a3.39 3.39 0 0 0 2 3.15l39.69 22.92c3 1.74 8.28 1.52 11.76-.49l38-21.94c2.05-1.16 3.02-2.66 2.91-4.06Z" opacity=".5" fill="url(#eJ9tTp62raB132-fill)"/><path d="M743.44 643.86a10.63 10.63 0 0 0-5.47-1.17V692a13.59 13.59 0 0 0 6.31-1.66l38-21.94c2-1.16 3-2.66 2.87-4.06v-7.44H766Z" transform="translate(.248)" fill="url(#eJ9tTp62raB133-fill)"/><path d="m732.52 683-39.69-22.91c-3-1.75-2.64-4.79.84-6.8l38-21.94c3.48-2 8.75-2.23 11.77-.48l39.69 22.91c3 1.74 2.64 4.78-.85 6.79l-38 21.94c-3.48 1.98-8.75 2.2-11.76.49Z" fill="url(#eJ9tTp62raB134-fill)"/><path d="m733.85 683-39.69-22.91c-3-1.75-3.74-4.3.84-6.8l38-21.94a13.46 13.46 0 0 1 6-1.64 13.84 13.84 0 0 0-7.29 1.64l-38 21.94c-3.48 2-3.86 5-.84 6.8L732.52 683a10.85 10.85 0 0 0 5.81 1.16 10.09 10.09 0 0 1-4.48-1.16Z" opacity=".5" fill="url(#eJ9tTp62raB135-fill)"/><path d="m782.28 663.85-38 21.94c-3.48 2-8.75 2.23-11.76.49l-39.69-22.92a3.39 3.39 0 0 1-2-3.15v1.62a3.41 3.41 0 0 0 2 3.16l39.69 22.91c3 1.74 8.28 1.52 11.76-.49l38-21.93c2-1.16 3-2.67 2.87-4.07v-1.62c.11 1.4-.86 2.9-2.87 4.06Z" opacity=".5" fill="url(#eJ9tTp62raB136-fill)"/><path d="M737.72 677.34a8.09 8.09 0 0 1-3.93-.9l-29.35-17a2.88 2.88 0 0 1-1.65-2.44 3.89 3.89 0 0 1 2.28-3.1l28.1-16.22c2.65-1.53 6.69-1.69 9-.36l29.35 16.94a2.9 2.9 0 0 1 1.66 2.44 3.86 3.86 0 0 1-2.28 3.1l-28.1 16.23a10.5 10.5 0 0 1-5.08 1.31Zm-3.63-1.42c2.14 1.24 5.91 1.07 8.4-.36l28.1-16.22a3.33 3.33 0 0 0 2-2.59 2.32 2.32 0 0 0-1.36-1.92l-29.34-16.94c-2.15-1.24-5.92-1.08-8.41.36l-28.09 16.22a3.33 3.33 0 0 0-2 2.58 2.3 2.3 0 0 0 1.35 1.92Z" opacity=".5" fill="#002344"/></g></g></g><g transform="translate(-345.916 -226.191)"><g transform="translate(737.975 675.12)" style="animation:eJ9tTp62raB139_to__to 4000ms linear infinite normal forwards"><g transform="translate(-737.975 -675.12)"><path d="M785.15 692.84v-7.41H766l-22.6-13c-3-1.74-8.29-1.52-11.77.49l-21.75 12.56h-19.09v7.83a3.41 3.41 0 0 0 2 3.15l39.69 22.91c3 1.74 8.28 1.53 11.76-.48l38-21.94c2.05-1.21 3.02-2.72 2.91-4.11Z" fill="url(#eJ9tTp62raB140-fill)"/><path d="M785.15 692.84v-7.41H766l-22.6-13c-3-1.74-8.29-1.52-11.77.49l-21.75 12.56h-19.09v7.83a3.41 3.41 0 0 0 2 3.15l39.69 22.91c3 1.74 8.28 1.53 11.76-.48l38-21.94c2.05-1.21 3.02-2.72 2.91-4.11Z" transform="translate(.086)" opacity=".5" fill="#085278"/><path d="M743.44 672.38a10.63 10.63 0 0 0-5.47-1.17v49.28a13.59 13.59 0 0 0 6.31-1.65l38-21.94c2-1.16 3-2.67 2.87-4.06v-7.41H766Z" fill="url(#eJ9tTp62raB142-fill)"/><path d="m732.52 711.49-39.69-22.91c-3-1.74-2.64-4.78.84-6.79l38-21.94c3.48-2 8.75-2.23 11.77-.49l39.69 22.91c3 1.75 2.64 4.79-.85 6.8l-38 21.94c-3.48 1.99-8.75 2.23-11.76.48Z" fill="#2a8791"/><path d="m732.52 711.49-39.69-22.91c-3-1.74-2.64-4.78.84-6.79l38-21.94c3.48-2 8.75-2.23 11.77-.49l39.69 22.91c3 1.75 2.64 4.79-.85 6.8l-38 21.94c-3.48 1.99-8.75 2.23-11.76.48Z" opacity=".5" fill="url(#eJ9tTp62raB144-fill)"/><path d="M733.58 706.43 701.6 688c-2.43-1.41-2.13-3.86.68-5.48l30.62-17.67c2.8-1.62 7.05-1.8 9.48-.4l32 18.47c2.43 1.4 2.12 3.85-.69 5.47L743.06 706c-2.81 1.66-7.06 1.83-9.48.43Z" fill="#5cf1ff"/><path d="m702.28 684.89 30.62-17.68c2.8-1.62 7.05-1.79 9.48-.39l32 18.46a3.63 3.63 0 0 1 1.3 1.2c.7-1.29.3-2.67-1.3-3.59l-32-18.47c-2.43-1.4-6.68-1.22-9.48.4l-30.62 17.67c-2.11 1.22-2.81 2.91-2 4.27a5 5 0 0 1 2-1.87Z" fill="#42cce8"/><path d="m733.85 711.49-39.69-22.91c-3-1.74-3.74-4.3.84-6.79l38-21.94a13.6 13.6 0 0 1 6-1.65 13.84 13.84 0 0 0-7.29 1.65l-38 21.94c-3.48 2-3.86 5.05-.84 6.79l39.69 22.91a10.76 10.76 0 0 0 5.81 1.16 10 10 0 0 1-4.52-1.16Z" opacity=".5" fill="url(#eJ9tTp62raB147-fill)"/><path d="m782.28 692.38-38 21.94c-3.48 2-8.75 2.22-11.76.48l-39.69-22.91a3.41 3.41 0 0 1-2-3.15v1.62a3.4 3.4 0 0 0 2 3.15l39.69 22.92c3 1.74 8.28 1.52 11.76-.49l38-21.94c2-1.16 3-2.66 2.87-4.06v-1.62c.11 1.39-.86 2.9-2.87 4.06Z" opacity=".5" fill="#2185a7"/><path d="m734.53 702-25.09-14.48c-1.9-1.11-1.66-3 .54-4.3l24-13.86a8.28 8.28 0 0 1 7.44-.31l25.08 14.48c1.91 1.1 1.67 3-.53 4.29l-24 13.87c-2.21 1.23-5.54 1.37-7.44.31Z" opacity=".57" fill="#002344"/><path d="M785.15 685.43c.01-.14.01-.28 0-.42v-20.7l-32.88.15-8.83-5.1c-3-1.74-8.29-1.52-11.77.49l-8.21 4.74-32.67.14v20.7a3.4 3.4 0 0 0 2 3.15l39.69 22.91c3 1.75 8.28 1.53 11.76-.48l38-21.94c1.81-1.05 2.78-2.37 2.87-3.64Z" transform="translate(-.083 .055)" opacity=".5" fill="#5cf1ff"/><path d="M785.15 664.31v-7.41H766l-22.6-13c-3-1.75-8.29-1.53-11.77.48l-21.71 12.52h-19.13v7.83a3.39 3.39 0 0 0 2 3.15l39.69 22.92c3 1.74 8.28 1.52 11.76-.49l38-21.94c2.05-1.16 3.02-2.66 2.91-4.06Z" fill="#2a8791"/><path d="M785.15 664.31v-7.41H766l-22.6-13c-3-1.75-8.29-1.53-11.77.48l-21.71 12.52h-19.13v7.83a3.39 3.39 0 0 0 2 3.15l39.69 22.92c3 1.74 8.28 1.52 11.76-.49l38-21.94c2.05-1.16 3.02-2.66 2.91-4.06Z" opacity=".5" fill="url(#eJ9tTp62raB152-fill)"/><path d="M743.44 643.86a10.63 10.63 0 0 0-5.47-1.17V692a13.59 13.59 0 0 0 6.31-1.66l38-21.94c2-1.16 3-2.66 2.87-4.06v-7.44H766Z" transform="translate(.248)" fill="url(#eJ9tTp62raB153-fill)"/><path d="m732.52 683-39.69-22.91c-3-1.75-2.64-4.79.84-6.8l38-21.94c3.48-2 8.75-2.23 11.77-.48l39.69 22.91c3 1.74 2.64 4.78-.85 6.79l-38 21.94c-3.48 1.98-8.75 2.2-11.76.49Z" fill="url(#eJ9tTp62raB154-fill)"/><path d="m733.85 683-39.69-22.91c-3-1.75-3.74-4.3.84-6.8l38-21.94a13.46 13.46 0 0 1 6-1.64 13.84 13.84 0 0 0-7.29 1.64l-38 21.94c-3.48 2-3.86 5-.84 6.8L732.52 683a10.85 10.85 0 0 0 5.81 1.16 10.09 10.09 0 0 1-4.48-1.16Z" opacity=".5" fill="url(#eJ9tTp62raB155-fill)"/><path d="m782.28 663.85-38 21.94c-3.48 2-8.75 2.23-11.76.49l-39.69-22.92a3.39 3.39 0 0 1-2-3.15v1.62a3.41 3.41 0 0 0 2 3.16l39.69 22.91c3 1.74 8.28 1.52 11.76-.49l38-21.93c2-1.16 3-2.67 2.87-4.07v-1.62c.11 1.4-.86 2.9-2.87 4.06Z" opacity=".5" fill="url(#eJ9tTp62raB156-fill)"/><path d="M737.72 677.34a8.09 8.09 0 0 1-3.93-.9l-29.35-17a2.88 2.88 0 0 1-1.65-2.44 3.89 3.89 0 0 1 2.28-3.1l28.1-16.22c2.65-1.53 6.69-1.69 9-.36l29.35 16.94a2.9 2.9 0 0 1 1.66 2.44 3.86 3.86 0 0 1-2.28 3.1l-28.1 16.23a10.5 10.5 0 0 1-5.08 1.31Zm-3.63-1.42c2.14 1.24 5.91 1.07 8.4-.36l28.1-16.22a3.33 3.33 0 0 0 2-2.59 2.32 2.32 0 0 0-1.36-1.92l-29.34-16.94c-2.15-1.24-5.92-1.08-8.41.36l-28.09 16.22a3.33 3.33 0 0 0-2 2.58 2.3 2.3 0 0 0 1.35 1.92Z" opacity=".5" fill="#002344"/></g></g></g><g><g><path d="M536.55 597.82a1.79 1.79 0 1 0 1.79-1.78 1.78 1.78 0 0 0-1.79 1.78Z" transform="translate(1.172 -.01)" fill="#00fcf8"/><circle style="mix-blend-mode:lighten" r="6.25" transform="translate(539.414 597.767)" fill="url(#eJ9tTp62raB161-fill)"/></g></g><g transform="translate(0 -.082)"><g><circle style="mix-blend-mode:screen" r="6.25" transform="matrix(.38 -.92 .92 .38 552.105 604.77)" fill="url(#eJ9tTp62raB173-fill)"/><path d="M549.27 604.65a1.78 1.78 0 1 0 3.56 0 1.78 1.78 0 0 0-3.56 0Z" transform="translate(1.055 .12)" fill="#00fcf8"/></g></g><g><g><circle style="mix-blend-mode:lighten" r="6.25" transform="translate(516.705 584.28)" fill="url(#eJ9tTp62raB186-fill)"/><path d="M513.38 584.27a1.79 1.79 0 1 0 3.58.02 1.79 1.79 0 0 0-3.58-.02Z" transform="translate(1.535)" fill="#00fcf8"/></g></g><g><g><circle style="mix-blend-mode:lighten" r="6.25" transform="translate(528.3 591.57)" fill="url(#eJ9tTp62raB199-fill)"/><circle r="1.78" transform="translate(528.462 591.64)" fill="#00fcf8"/></g></g></g></svg>