<?xml version="1.0" encoding="utf-8"?>
<!-- Uploaded to: SVG Repo, www.svgrepo.com, Generator: SVG Repo Mixer Tools -->
<svg width="800px" height="800px" viewBox="0 0 1024 1024" fill="#364ECE" class="icon"  version="1.1" xmlns="http://www.w3.org/2000/svg"><path d="M663.93 599.96H8.23a7.992 7.992 0 0 1-7.996-7.998v-159.926a7.99 7.99 0 0 1 7.996-7.996h655.7a7.99 7.99 0 0 1 7.996 7.996v159.926a7.992 7.992 0 0 1-7.996 7.998zM16.226 583.966h639.708v-143.934H16.226v143.934z" fill="" /><path d="M104.186 567.974H56.208a8.002 8.002 0 0 1-7.052-4.216 8.016 8.016 0 0 1 0.398-8.214l63.97-95.958a8.02 8.02 0 0 1 6.654-3.56h47.978c2.952 0 5.662 1.624 7.052 4.216a8.016 8.016 0 0 1-0.398 8.214L110.84 564.414a8.02 8.02 0 0 1-6.654 3.56z m-33.04-15.992h28.76l53.312-79.962h-28.76l-53.312 79.962zM200.142 567.974H152.164a8 8 0 0 1-7.05-4.216 8.016 8.016 0 0 1 0.398-8.214l63.97-95.958a8.02 8.02 0 0 1 6.652-3.56h47.978c2.952 0 5.662 1.624 7.052 4.216a8.016 8.016 0 0 1-0.398 8.214l-63.97 95.958a8.02 8.02 0 0 1-6.654 3.56z m-33.038-15.992h28.76l53.312-79.962h-28.762l-53.31 79.962zM296.1 567.974h-47.978a8.002 8.002 0 0 1-7.052-4.216 8.016 8.016 0 0 1 0.398-8.214l63.97-95.958a8.02 8.02 0 0 1 6.654-3.56h47.978a8 8 0 0 1 7.05 4.216 8.016 8.016 0 0 1-0.398 8.214l-63.97 95.958a8.02 8.02 0 0 1-6.652 3.56z m-33.042-15.992h28.762l53.31-79.962h-28.76l-53.312 79.962zM551.982 551.982C529.93 551.982 512 534.052 512 512s17.93-39.98 39.982-39.98 39.98 17.928 39.98 39.98-17.926 39.982-39.98 39.982z m0-63.97c-13.228 0-23.99 10.76-23.99 23.988s10.762 23.988 23.99 23.988 23.988-10.76 23.988-23.988-10.76-23.988-23.988-23.988zM663.93 759.886H8.23a7.99 7.99 0 0 1-7.996-7.996v-127.942c0-4.42 3.576-7.996 7.996-7.996s7.996 3.576 7.996 7.996v119.946h639.708v-119.946a7.992 7.992 0 0 1 7.996-7.996 7.99 7.99 0 0 1 7.996 7.996v127.942a7.99 7.99 0 0 1-7.996 7.996z" fill="" /><path d="M104.186 727.902H56.208a8 8 0 0 1-7.052-4.218 8.018 8.018 0 0 1 0.398-8.214l63.97-95.956a8.016 8.016 0 0 1 6.654-3.56h47.978c2.952 0 5.662 1.624 7.052 4.216a8.018 8.018 0 0 1-0.398 8.214L110.84 724.34a8.02 8.02 0 0 1-6.654 3.562z m-33.04-15.994h28.76l53.312-79.962h-28.76l-53.312 79.962zM200.142 727.902H152.164a7.998 7.998 0 0 1-7.05-4.218 8.018 8.018 0 0 1 0.398-8.214l63.97-95.956a8.016 8.016 0 0 1 6.652-3.56h47.978c2.952 0 5.662 1.624 7.052 4.216a8.018 8.018 0 0 1-0.398 8.214l-63.97 95.956a8.02 8.02 0 0 1-6.654 3.562z m-33.038-15.994h28.76l53.312-79.962h-28.762l-53.31 79.962zM296.1 727.902h-47.978a8 8 0 0 1-7.052-4.218 8.018 8.018 0 0 1 0.398-8.214l63.97-95.956a8.016 8.016 0 0 1 6.654-3.56h47.978a8 8 0 0 1 7.05 4.216 8.018 8.018 0 0 1-0.398 8.214l-63.97 95.956a8.018 8.018 0 0 1-6.652 3.562z m-33.042-15.994h28.762l53.31-79.962h-28.76l-53.312 79.962zM551.982 711.908c-22.052 0-39.982-17.928-39.982-39.982 0-22.05 17.93-39.98 39.982-39.98s39.98 17.93 39.98 39.98c0 22.054-17.926 39.982-39.98 39.982z m0-63.97c-13.228 0-23.99 10.762-23.99 23.988 0 13.23 10.762 23.99 23.99 23.99s23.988-10.76 23.988-23.99c0-13.226-10.76-23.988-23.988-23.988zM663.93 919.812H8.23a7.99 7.99 0 0 1-7.996-7.996v-127.942c0-4.42 3.576-7.996 7.996-7.996s7.996 3.576 7.996 7.996v119.946h639.708v-119.946a7.992 7.992 0 0 1 7.996-7.996 7.99 7.99 0 0 1 7.996 7.996v127.942a7.99 7.99 0 0 1-7.996 7.996z" fill="" /><path d="M104.186 887.828H56.208a8.002 8.002 0 0 1-7.052-4.216 8.016 8.016 0 0 1 0.398-8.214l63.97-95.958a8.02 8.02 0 0 1 6.654-3.56h47.978c2.952 0 5.662 1.624 7.052 4.216a8.016 8.016 0 0 1-0.398 8.214L110.84 884.268a8.02 8.02 0 0 1-6.654 3.56z m-33.04-15.992h28.76l53.312-79.964h-28.76l-53.312 79.964zM200.142 887.828H152.164a8 8 0 0 1-7.05-4.216 8.016 8.016 0 0 1 0.398-8.214l63.97-95.958a8.02 8.02 0 0 1 6.652-3.56h47.978c2.952 0 5.662 1.624 7.052 4.216a8.016 8.016 0 0 1-0.398 8.214l-63.97 95.958a8.02 8.02 0 0 1-6.654 3.56z m-33.038-15.992h28.76l53.312-79.964h-28.762l-53.31 79.964zM296.1 887.828h-47.978a8.002 8.002 0 0 1-7.052-4.216 8.016 8.016 0 0 1 0.398-8.214l63.97-95.958a8.02 8.02 0 0 1 6.654-3.56h47.978a8 8 0 0 1 7.05 4.216 8.016 8.016 0 0 1-0.398 8.214l-63.97 95.958a8.02 8.02 0 0 1-6.652 3.56z m-33.042-15.992h28.762l53.31-79.964h-28.76l-53.312 79.964zM551.982 871.836c-22.052 0-39.982-17.93-39.982-39.982s17.93-39.982 39.982-39.982 39.98 17.93 39.98 39.982-17.926 39.982-39.98 39.982z m0-63.97c-13.228 0-23.99 10.76-23.99 23.988s10.762 23.99 23.99 23.99 23.988-10.762 23.988-23.99-10.76-23.988-23.988-23.988zM8.23 440.034a7.994 7.994 0 0 1-5.654-13.65l95.956-95.956a7.992 7.992 0 0 1 11.306 0 7.992 7.992 0 0 1 0 11.306L13.884 437.692a7.98 7.98 0 0 1-5.654 2.342zM663.93 440.034a7.978 7.978 0 0 1-5.652-2.342l-95.958-95.958a7.992 7.992 0 0 1 0-11.306 7.994 7.994 0 0 1 11.308 0l95.956 95.956a7.994 7.994 0 0 1-5.654 13.65z" fill="" /><path d="M567.974 344.078H104.186c-4.418 0-7.996-3.578-7.996-7.998s3.578-7.996 7.996-7.996h463.788c4.42 0 7.996 3.576 7.996 7.996s-3.576 7.998-7.996 7.998z" fill="" /><path d="M1015.77 647.938H711.908c-4.42 0-7.996-3.576-7.996-7.996s3.576-7.996 7.996-7.996h295.866V152.164H336.08v135.94c0 4.42-3.576 7.996-7.996 7.996s-7.996-3.576-7.996-7.996V144.168a7.99 7.99 0 0 1 7.996-7.996h687.686a7.99 7.99 0 0 1 7.996 7.996v495.774a7.99 7.99 0 0 1-7.996 7.996z" fill="" /><path d="M1015.77 152.164H328.084a7.99 7.99 0 0 1-7.996-7.996c0-22.05 17.938-39.98 39.982-39.98h623.714c22.05 0 39.98 17.93 39.98 39.98a7.988 7.988 0 0 1-7.994 7.996z m-678.322-15.992H1006.4c-3.294-9.308-12.182-15.992-22.614-15.992H360.07c-10.426 0-19.32 6.684-22.622 15.992zM967.792 296.1H376.062a7.99 7.99 0 0 1-7.996-7.996V192.146a7.99 7.99 0 0 1 7.996-7.996h591.728a7.99 7.99 0 0 1 7.996 7.996v95.958a7.99 7.99 0 0 1-7.994 7.996z m-583.734-15.992h575.736v-79.964H384.058v79.964z" fill="" /><path d="M887.828 248.122H456.026c-4.42 0-7.996-3.576-7.996-7.996s3.576-7.996 7.996-7.996h431.802c4.42 0 7.996 3.576 7.996 7.996s-3.576 7.996-7.996 7.996zM967.792 504.004H711.908a7.99 7.99 0 0 1-7.996-7.996V336.08a7.99 7.99 0 0 1 7.996-7.996h255.882a7.99 7.99 0 0 1 7.996 7.996v159.928a7.99 7.99 0 0 1-7.994 7.996z m-247.888-15.992h239.89v-143.934H719.904v143.934z" fill="" /><path d="M839.85 488.012c-1.404 0-2.826-0.36-4.124-1.14a7.994 7.994 0 0 1-2.732-10.962l47.978-79.964c2.264-3.78 7.184-5.058 10.978-2.748a7.994 7.994 0 0 1 2.732 10.962l-47.976 79.964a7.984 7.984 0 0 1-6.856 3.888z" fill="" /><path d="M935.806 488.012a7.986 7.986 0 0 1-6.858-3.888l-47.976-79.964a7.996 7.996 0 0 1 2.732-10.962c3.81-2.31 8.714-1.032 10.978 2.748l47.978 79.964c2.264 3.78 1.046 8.7-2.732 10.962-1.296 0.78-2.718 1.14-4.122 1.14zM791.872 488.012c-1.53 0-3.06-0.438-4.434-1.344a7.98 7.98 0 0 1-2.218-11.088l31.984-47.978c2.438-3.686 7.388-4.67 11.09-2.218a7.988 7.988 0 0 1 2.218 11.09l-31.986 47.978a7.976 7.976 0 0 1-6.654 3.56z" fill="" /><path d="M834.508 456.01a7.966 7.966 0 0 1-6.652-3.56l-10.652-15.976a7.988 7.988 0 0 1 2.218-11.09 7.986 7.986 0 0 1 11.09 2.218l10.65 15.976a7.99 7.99 0 0 1-6.654 12.432zM759.886 408.048c-13.228 0-23.988-10.762-23.988-23.99s10.76-23.988 23.988-23.988 23.988 10.76 23.988 23.988-10.758 23.99-23.988 23.99z m0-31.986c-4.404 0-7.996 3.592-7.996 7.996s3.592 7.996 7.996 7.996 7.996-3.592 7.996-7.996-3.59-7.996-7.996-7.996zM967.792 535.988H711.908c-4.42 0-7.996-3.576-7.996-7.996s3.576-7.996 7.996-7.996h255.882c4.42 0 7.996 3.576 7.996 7.996s-3.576 7.996-7.994 7.996zM967.792 567.974H711.908c-4.42 0-7.996-3.576-7.996-7.996s3.576-7.996 7.996-7.996h255.882c4.42 0 7.996 3.576 7.996 7.996s-3.576 7.996-7.994 7.996zM855.844 599.96h-143.936c-4.42 0-7.996-3.578-7.996-7.998s3.576-7.996 7.996-7.996h143.936c4.418 0 7.996 3.576 7.996 7.996s-3.578 7.998-7.996 7.998zM647.938 376.062a7.99 7.99 0 0 1-7.996-7.996V336.08c0-4.42 3.576-7.996 7.996-7.996s7.996 3.576 7.996 7.996v31.986a7.99 7.99 0 0 1-7.996 7.996z" fill="" /><path d="M647.938 344.078h-31.984c-4.42 0-7.996-3.578-7.996-7.998s3.576-7.996 7.996-7.996h31.984c4.42 0 7.996 3.576 7.996 7.996s-3.576 7.998-7.996 7.998z" fill="" /></svg>