<?xml version="1.0" encoding="UTF-8"?>
<svg xmlns="http://www.w3.org/2000/svg" xmlns:xlink="http://www.w3.org/1999/xlink" id="Layer_1" data-name="Layer 1" viewBox="0 0 100 100">
  <defs>
    <style>.cls-1{fill:url(#linear-gradient);}.cls-2{fill:url(#linear-gradient-2);}.cls-3{fill:#600;}.cls-4{fill:#e42320;}.cls-14,.cls-15,.cls-5,.cls-6{fill:none;stroke-linecap:round;stroke-linejoin:round;}.cls-14,.cls-5,.cls-6{stroke:#fff;stroke-width:1.4px;}.cls-6{stroke-dasharray:0.81 2.84 3.25 0.81;}.cls-7{fill:url(#linear-gradient-3);}.cls-8{fill:url(#linear-gradient-4);}.cls-9{fill:url(#linear-gradient-5);}.cls-10{fill:url(#linear-gradient-6);}.cls-11{fill:url(#linear-gradient-7);}.cls-12{fill:url(#linear-gradient-8);}.cls-13{fill:#bd1622;}.cls-14{stroke-dasharray:4.9 4.2 1.4 3.5 0;}.cls-15{stroke:#ffcd01;stroke-width:0.91px;}.cls-16{fill:#2b3078;}.cls-17{fill:#4d62aa;}.cls-18{fill:#3c4a99;}.cls-19{fill:#e4ecf8;}.cls-20{fill:#fabd5c;}</style>
    <linearGradient id="linear-gradient" x1="59.37" y1="81.11" x2="79.28" y2="81.11" gradientUnits="userSpaceOnUse">
      <stop offset="0" stop-color="#c80f0e"></stop>
      <stop offset="1" stop-color="#8d0f1c"></stop>
    </linearGradient>
    <linearGradient id="linear-gradient-2" x1="9.59" y1="85.31" x2="60.58" y2="85.31" xlink:href="#linear-gradient"></linearGradient>
    <linearGradient id="linear-gradient-3" x1="59.37" y1="63.38" x2="79.28" y2="63.38" xlink:href="#linear-gradient"></linearGradient>
    <linearGradient id="linear-gradient-4" x1="9.59" y1="67.58" x2="60.58" y2="67.58" xlink:href="#linear-gradient"></linearGradient>
    <linearGradient id="linear-gradient-5" x1="58.98" y1="45.8" x2="79.26" y2="45.8" xlink:href="#linear-gradient"></linearGradient>
    <linearGradient id="linear-gradient-6" x1="9.16" y1="49.69" x2="60.19" y2="49.69" xlink:href="#linear-gradient"></linearGradient>
    <linearGradient id="linear-gradient-7" x1="59.05" y1="27.93" x2="79.33" y2="27.93" xlink:href="#linear-gradient"></linearGradient>
    <linearGradient id="linear-gradient-8" x1="9.26" y1="31.85" x2="60.26" y2="31.85" xlink:href="#linear-gradient"></linearGradient>
  </defs>
  <polygon class="cls-1" points="59.63 94.48 79.11 84.11 79.28 67.75 59.37 78.34 59.63 94.48"></polygon>
  <path class="cls-2" d="M59.17,94.49,11.32,92.24A1.36,1.36,0,0,1,10,90.83l-.43-13.4A1.36,1.36,0,0,1,11,76.13l47.85,2.26a1.36,1.36,0,0,1,1.3,1.41l.43,13.4A1.29,1.29,0,0,1,59.17,94.49Z"></path>
  <path class="cls-3" d="M57.55,79.16,10.26,77.07a.36.36,0,0,1-.14-.7L30,66.11a4.27,4.27,0,0,1,1.86-.44l47.42,2.17a.36.36,0,0,1,.14.7L60.09,78.66A5.43,5.43,0,0,1,57.55,79.16Z"></path>
  <path class="cls-4" d="M79.45,68.51C74.2,71.38,69,74.25,63.68,77.06l-2,1.07-1,.52a6.58,6.58,0,0,1-1.06.48,5,5,0,0,1-2.33.31l-2.25-.13-9-.35-17.89-.84-9-.5-9-.61,9,.2,9,.3,17.92.74,9,.45,2.24.13a5.15,5.15,0,0,0,2.12-.27c.64-.27,1.31-.62,2-1l2-1Q71.39,72.46,79.45,68.51Z"></path>
  <line class="cls-5" x1="14.09" y1="81.34" x2="16.46" y2="81.56"></line>
  <line class="cls-6" x1="19.66" y1="81.72" x2="26.81" y2="82.13"></line>
  <line class="cls-5" x1="27.21" y1="82.15" x2="29.64" y2="82.33"></line>
  <polygon class="cls-7" points="59.63 76.75 79.11 66.38 79.28 50.01 59.37 60.61 59.63 76.75"></polygon>
  <path class="cls-8" d="M59.17,76.76,11.32,74.51A1.37,1.37,0,0,1,10,73.1L9.59,59.7A1.36,1.36,0,0,1,11,58.4l47.85,2.25a1.38,1.38,0,0,1,1.3,1.42l.43,13.39A1.29,1.29,0,0,1,59.17,76.76Z"></path>
  <path class="cls-3" d="M57.55,61.43,10.26,59.34a.36.36,0,0,1-.14-.7L30,48.38a4.43,4.43,0,0,1,1.86-.45l47.42,2.18a.36.36,0,0,1,.14.7L60.09,60.93A5.55,5.55,0,0,1,57.55,61.43Z"></path>
  <path class="cls-4" d="M79.45,50.78C74.2,53.65,69,56.52,63.68,59.33l-2,1.07-1,.51a5.81,5.81,0,0,1-1.06.49,5,5,0,0,1-2.33.31l-2.25-.13-9-.35-17.89-.84-9-.51-9-.6,9,.2,9,.3,17.92.74,9,.45,2.24.12a4.84,4.84,0,0,0,2.12-.27,19.88,19.88,0,0,0,2-1l2-1Q71.39,54.73,79.45,50.78Z"></path>
  <polygon class="cls-9" points="59.24 58.89 79.26 48.23 79.17 32.7 58.98 42.75 59.24 58.89"></polygon>
  <path class="cls-10" d="M58.78,58.9,10.93,56.65a1.36,1.36,0,0,1-1.3-1.41L9.16,41.78a1.38,1.38,0,0,1,1.42-1.3L58.46,42.8a1.35,1.35,0,0,1,1.29,1.41l.44,13.4A1.29,1.29,0,0,1,58.78,58.9Z"></path>
  <path class="cls-3" d="M57.19,43.63,9.86,41.48a.36.36,0,0,1-.14-.7L29.57,30.52a4.32,4.32,0,0,1,1.87-.44l47.41,2.17A.36.36,0,0,1,79,33L59.69,43.07A5.28,5.28,0,0,1,57.19,43.63Z"></path>
  <path class="cls-4" d="M79.06,32.92c-5.25,2.87-10.5,5.74-15.78,8.55l-2,1.07-1,.52a7,7,0,0,1-1.06.48,5,5,0,0,1-2.33.31l-2.25-.13-9-.35-17.89-.84-9-.44-9-.61,9,.21,9,.29,17.91.74,9,.45,2.25.13A5.15,5.15,0,0,0,59.05,43c.64-.27,1.3-.62,2-1l2-1C68.37,38.3,73.68,35.55,79.06,32.92Z"></path>
  <polygon class="cls-11" points="59.3 41.02 79.33 30.36 79.24 14.83 59.05 24.88 59.3 41.02"></polygon>
  <path class="cls-12" d="M58.84,41,11,38.78A1.35,1.35,0,0,1,9.7,37.37L9.26,24a1.36,1.36,0,0,1,1.41-1.3l47.85,2.26a1.36,1.36,0,0,1,1.3,1.41l.44,13.4A1.31,1.31,0,0,1,58.84,41Z"></path>
  <path class="cls-13" d="M57.25,25.76,9.93,23.61a.36.36,0,0,1-.14-.7L29.64,12.65a4.31,4.31,0,0,1,1.86-.44l47.42,2.17a.36.36,0,0,1,.14.7L59.76,25.2A5.15,5.15,0,0,1,57.25,25.76Z"></path>
  <path class="cls-4" d="M79.06,15.08C73.82,18,68.57,20.82,63.29,23.64l-2,1.06-1,.52a7.55,7.55,0,0,1-1.06.49,5,5,0,0,1-2.33.3l-2.25-.13-9-.35-17.83-.87-9-.51-9-.6,9,.2,9,.3,17.92.74,9,.45,2.25.13a5.1,5.1,0,0,0,2.11-.27c.64-.27,1.31-.62,2-1l2-1C68.37,20.46,73.69,17.71,79.06,15.08Z"></path>
  <line class="cls-14" x1="13.34" y1="28.42" x2="36.66" y2="29.79"></line>
  <line class="cls-5" x1="14.09" y1="63.61" x2="16.46" y2="63.83"></line>
  <line class="cls-6" x1="19.66" y1="63.99" x2="26.81" y2="64.39"></line>
  <line class="cls-5" x1="27.21" y1="64.41" x2="29.64" y2="64.6"></line>
  <line class="cls-15" x1="13.31" y1="46.5" x2="36.6" y2="47.97"></line>
  <line class="cls-15" x1="13.02" y1="49.61" x2="24.48" y2="50.37"></line>
  <path class="cls-3" d="M52.92,23.47,21.58,22.09a.26.26,0,0,1-.11-.49l13.11-6.83a3,3,0,0,1,1.26-.28l31.43,1.42a.26.26,0,0,1,.11.49L54.6,23.12A3.27,3.27,0,0,1,52.92,23.47Z"></path>
  <path class="cls-16" d="M28.35,22.37l24.57,1.1a3.46,3.46,0,0,0,1.68-.35l5.74-3,.17-2.89L28.29,21.08Z"></path>
  <path class="cls-17" d="M50.33,22.12l-21.92-.95c-.15,0-.22-.27-.1-.33l9.23-4.76a1.56,1.56,0,0,1,.82-.2l22,1c.15,0,.22.27.1.34l-8.95,4.69A2.4,2.4,0,0,1,50.33,22.12Z"></path>
  <path class="cls-4" d="M72,18.45c-.74,3.28-1.61,6.47-2.49,9.66l-1.41,4.8L66.6,37.66l-1.38-1.14c1.39-.74,2.85-1.51,4.21-2.32l2.13-1.13,2.12-1.13h0A1,1,0,0,1,75,32.4a.89.89,0,0,1,.08.73c-.42,1.55-.85,3.1-1.33,4.68s-.9,3.13-1.33,4.68-.93,3.07-1.47,4.68-1,3.1-1.61,4.59c.24-1.6.47-3.21.77-4.84s.62-3.22.89-4.76.66-3.16,1-4.77.72-3.18,1.05-4.76l1.44,1.1-2.13,1.13L70.31,36c-1.4.75-2.85,1.52-4.28,2.2l-.06,0a1,1,0,0,1-1.3-.4.84.84,0,0,1,0-.77l1.69-4.72,1.73-4.65C69.37,24.58,70.62,21.5,72,18.45Z"></path>
  <path class="cls-18" d="M62.55,42.63a8.18,8.18,0,0,1,12.12,2.83,18.91,18.91,0,0,1,1.88,7c.12,1.58.06,3.17.18,4.75A8.48,8.48,0,0,0,79,62.31a27.67,27.67,0,0,1,4.66,6.37,23.06,23.06,0,0,1,2.43,8.56c.06.93.11,1.86.16,2.79,0,.09,0,.21,0,.27,1.07,1.28.94,2.76.74,4.26a1,1,0,0,0,.51,1A21.06,21.06,0,0,1,90,87.43a2.42,2.42,0,0,1-.32,3.95,17.25,17.25,0,0,1-3.34,1.41,7.25,7.25,0,0,0-2.91,2.12,7.31,7.31,0,0,1-5.93,2.81A2.77,2.77,0,0,1,74.66,96a.71.71,0,0,0-.76-.53c-3.08.1-6.17-.24-9.23.23a9.3,9.3,0,0,0-4.14,1.59c-1.16.82-2.4.46-3.6.16a12.13,12.13,0,0,1-3.06-1.13c-1.62-.91-3.45-1-5.23-1.19a9.42,9.42,0,0,1-3.81-1.14,2.34,2.34,0,0,1-1.18-2.78,10,10,0,0,0,0-3.89c-.41-2.24.38-3.46,2.59-4A8.22,8.22,0,0,1,47.61,83a1.14,1.14,0,0,0,1.19-.94,5.75,5.75,0,0,1,.71-2c.31-.5,1.08-.89,1.22-1.44.38-1.53.75-3.07,1.2-4.58a71.11,71.11,0,0,1,4.91-11.46,12.5,12.5,0,0,0,1.51-4c.07-.31.14-.63.2-.94a5.23,5.23,0,0,0,.22-1.18c.52-4.73-.71-10.32,3.55-13.69Zm6.3,12.24.07.05-.08,0a4,4,0,0,1-.16-1.82,1.23,1.23,0,0,1,1-1.16c.61-.1.81.44,1,.9a3.29,3.29,0,0,1,0,2.08l-.07,0s0,0,0,.05l.08-.07c.57-.08.82-.53,1-1a5.09,5.09,0,0,0-.09-4.33,2,2,0,0,0-3.56-.35A5.06,5.06,0,0,0,68,54.36,1,1,0,0,0,68.85,54.87Zm-7.11,0,0,.06h0l-.08-.07a3,3,0,0,1,.07-2.26c.21-.34.37-.75.86-.73s.79.43,1,.88a2.94,2.94,0,0,1-.2,2.35,4.48,4.48,0,0,0,.47-.27c1.34-.94,1.53-3.89.56-5.4s-2.68-1.58-3.62.07a4.33,4.33,0,0,0-.45,3.32C60.62,53.67,60.73,54.57,61.74,54.88Zm-1.06,5.28c-.41,1-.72,1.94-1.18,2.81a65.77,65.77,0,0,0-6,15.72,1,1,0,0,0,.28,1.07,7.36,7.36,0,0,1,1.82,2.89,11.64,11.64,0,0,0,3.05,4.74,12.22,12.22,0,0,1,2.25,2.46,1.68,1.68,0,0,0,1.4.77,24.9,24.9,0,0,0,5.39,0c2.39-.34,4.72-.8,6.62-2.47a1.48,1.48,0,0,0,.53-1,20.87,20.87,0,0,1,.8-3.91c.32-1,1.06-1.89,1.09-3a41.33,41.33,0,0,0-1-9.8A52.24,52.24,0,0,0,72,59.94c-.2-.43-.47-.41-.83-.21A22.74,22.74,0,0,1,68.75,61c-1.92.76-3.81,2-6,.62A19.84,19.84,0,0,1,60.68,60.16Zm-1,33.76a5.05,5.05,0,0,0-2.2-4.22,13.18,13.18,0,0,1-3-3.41c-.84-1.38-1.27-3-2.28-4.26-.17-.22-.27-.56-.59-.51s-.29.41-.32.62c-.35,2.29-1.78,3.24-4,3.41-1.31.1-1.54.47-1.22,1.78a9.53,9.53,0,0,1,0,4.15c-.12.57,0,.81.5,1a8,8,0,0,0,2.64.53,12.63,12.63,0,0,1,5.92,1.38,11.37,11.37,0,0,0,2.62,1C59.39,95.8,59.72,95.52,59.71,93.92Zm18-8.82a10.36,10.36,0,0,0-.37,2.5,49.8,49.8,0,0,0-.5,6.79c0,.82.4,1.25,1.17,1.23a4.56,4.56,0,0,0,3.53-1.46,11.65,11.65,0,0,1,5.63-4c.45-.14,1.19-.18,1.2-.71s-.68-.79-1.13-1.11c-1-.7-2.12-1.29-2.45-2.57-.17-.64-.34-.58-.85-.36C81.87,86.4,79.79,86.59,77.73,85.1ZM66.37,55.41a6.61,6.61,0,0,0-4.55,2.05c-.15.15-.29.27-.1.46,1,1,2.05,2.12,3.32,2.08a9.84,9.84,0,0,0,5.39-2.32c.15-.11.29-.29.06-.46A8.4,8.4,0,0,0,66.37,55.41Z"></path>
  <path class="cls-19" d="M60.68,60.16a19.84,19.84,0,0,0,2.09,1.45c2.17,1.37,4.06.14,6-.62a22.74,22.74,0,0,0,2.39-1.26c.36-.2.63-.22.83.21a52.24,52.24,0,0,1,3.74,10.42,41.33,41.33,0,0,1,1,9.8c0,1.16-.77,2-1.09,3a20.87,20.87,0,0,0-.8,3.91,1.48,1.48,0,0,1-.53,1c-1.9,1.67-4.23,2.13-6.62,2.47a24.9,24.9,0,0,1-5.39,0,1.68,1.68,0,0,1-1.4-.77,12.22,12.22,0,0,0-2.25-2.46,11.64,11.64,0,0,1-3.05-4.74,7.36,7.36,0,0,0-1.82-2.89,1,1,0,0,1-.28-1.07A65.77,65.77,0,0,1,59.5,63C60,62.1,60.27,61.15,60.68,60.16Z"></path>
  <path class="cls-20" d="M59.71,93.92c0,1.6-.32,1.88-1.89,1.43a11.37,11.37,0,0,1-2.62-1A12.63,12.63,0,0,0,49.28,93a8,8,0,0,1-2.64-.53c-.47-.19-.62-.43-.5-1a9.53,9.53,0,0,0,0-4.15c-.32-1.31-.09-1.68,1.22-1.78,2.2-.17,3.63-1.12,4-3.41,0-.21,0-.57.32-.62s.42.29.59.51c1,1.28,1.44,2.88,2.28,4.26a13.18,13.18,0,0,0,3,3.41A5.05,5.05,0,0,1,59.71,93.92Z"></path>
  <path class="cls-20" d="M77.73,85.1c2.06,1.49,4.14,1.3,6.23.36.51-.22.68-.28.85.36.33,1.28,1.47,1.87,2.45,2.57.45.32,1.15.55,1.13,1.11s-.75.57-1.2.71a11.65,11.65,0,0,0-5.63,4A4.56,4.56,0,0,1,78,95.62c-.77,0-1.15-.41-1.17-1.23a49.8,49.8,0,0,1,.5-6.79A10.36,10.36,0,0,1,77.73,85.1Z"></path>
  <path class="cls-19" d="M66.37,55.41a8.4,8.4,0,0,1,4.12,1.81c.23.17.09.35-.06.46A9.84,9.84,0,0,1,65,60c-1.27,0-2.37-1.11-3.32-2.08-.19-.19,0-.31.1-.46A6.61,6.61,0,0,1,66.37,55.41Z"></path>
  <path class="cls-19" d="M61.74,54.88c-1-.31-1.12-1.21-1.34-2a4.33,4.33,0,0,1,.45-3.32c.94-1.65,2.6-1.66,3.62-.07s.78,4.46-.56,5.4a4.48,4.48,0,0,1-.47.27,2.94,2.94,0,0,0,.2-2.35c-.18-.45-.42-.85-1-.88s-.65.39-.86.73a3,3,0,0,0-.07,2.26Z"></path>
  <path class="cls-19" d="M70.72,54.88a3.29,3.29,0,0,0,0-2.08c-.2-.46-.4-1-1-.9a1.23,1.23,0,0,0-1,1.16,4,4,0,0,0,.16,1.82h0a1,1,0,0,1-.83-.51,5.06,5.06,0,0,1,.07-5.14,2,2,0,0,1,3.56.35,5.09,5.09,0,0,1,.09,4.33c-.2.45-.45.9-1,1Z"></path>
  <path class="cls-19" d="M61.74,54.88l.08.07h0l0-.06Z"></path>
  <path class="cls-19" d="M68.84,54.88l.08,0-.07-.05Z"></path>
  <path class="cls-19" d="M70.72,54.88l-.08.07s0,0,0-.05l.07,0Z"></path>
</svg>
