<svg xmlns="http://www.w3.org/2000/svg" viewBox="0 0 888.52 162.61"><defs><style>.cls-1{fill:none}.cls-2{fill:#a5aec9}.cls-3{fill:#fff}</style></defs><g id="Layer_2" data-name="Layer 2"><g id="Layer_1-2" data-name="Layer 1"><path class="cls-1" d="M182.35 129.72a89.66 89.66 0 007.32 6.17l1.7 1.11c-3.17-2.37-6.18-4.81-9.02-7.28zM702.55 137.76c1-.64 2.13-1.35 3.3-2.12 2.18-1.64 4.34-3.45 6.46-5.38q-4.9 4.08-9.76 7.5z"/><path class="cls-2" d="M145.69 84.65C98.56 9.45 52.29 1.45 39.06.78h-3.74a29.66 29.66 0 013.74 0h2.22C36.6.46 31.92.38 27.42.38L0 .25v12.4h28.79a100.47 100.47 0 0142.5 9.21c43.55 20.3 67.15 62.39 67.15 62.39a183 183 0 0051.23 51.64 89.66 89.66 0 01-7.32-6.17 170 170 0 01-36.66-45.07zM189.67 135.89c1.4 1.06 2.81 2.05 4.23 3-.85-.61-1.7-1.22-2.53-1.84zM699.28 140a62.77 62.77 0 006.57-4.36c-1.17.77-2.28 1.48-3.3 2.12s-2.18 1.51-3.27 2.24zM868.11.12c-4.73 0-9.75.2-14.77.66h.88c-64.5 6.33-102.86 83.87-102.86 83.87-12.35 19.81-25.78 34.58-39.05 45.61a90.216 90.216 0 01-6.46 5.38A183.18 183.18 0 00757.09 84s25.47-45.44 72.33-64.67a94.67 94.67 0 0136-6.93h23.13V0z"/><path class="cls-3" d="M712.31 130.26c13.27-11 26.7-25.8 39.05-45.61 0 0 38.36-77.54 102.86-83.87H39.06c13.23.67 59.5 8.67 106.63 83.87a170 170 0 0036.66 45.07c2.84 2.47 5.85 4.91 9 7.28.83.62 1.68 1.23 2.53 1.84 18.61 13.27 42.62 23.74 72 23.74H630.7s32 1.81 68.58-22.58c1.09-.73 2.18-1.47 3.27-2.24q4.85-3.42 9.76-7.5zM35.32.78h3.74a29.66 29.66 0 00-3.74 0z"/></g></g></svg>