<?xml version="1.0" encoding="UTF-8"?>
<svg width="67px" height="29px" viewBox="0 0 67 29" version="1.1" xmlns="http://www.w3.org/2000/svg" xmlns:xlink="http://www.w3.org/1999/xlink">
    <!-- Generator: Sketch 54.1 (76490) - https://sketchapp.com -->
    <title>Triangle</title>
    <desc>Created with Sketch.</desc>
    <g id="Page-1" stroke="none" stroke-width="1" fill="none" fill-rule="evenodd">
        <g id="main-copy" transform="translate(-394.000000, -1083.000000)" fill="#FFFFFF">
            <path d="M434.212108,1086.56479 C440.291515,1095.57635 444.935076,1101.75425 448.14279,1105.09849 C452.443122,1109.58186 456.728859,1111.64759 461,1111.29569 C446.960418,1111.6587 436.10433,1111.84021 428.431735,1111.84021 C420.759141,1111.84021 409.281896,1111.6587 394,1111.29569 C397.326929,1113.06935 401.352958,1111.49306 406.078086,1106.56682 C409.644064,1102.84907 414.585789,1096.20418 420.903262,1086.63215 L420.903263,1086.63215 C423.337019,1082.9446 428.299316,1081.9282 431.986864,1084.36195 C432.86647,1084.94249 433.622701,1085.6911 434.212108,1086.56479 Z" id="Triangle" transform="translate(427.500000, 1097.500000) scale(-1, -1) translate(-427.500000, -1097.500000) "></path>
        </g>
    </g>
</svg>